<mxfile host="65bd71144e">
    <diagram id="LIpp3CZlyNdoKWDWqJM2" name="Page-1">
        <mxGraphModel dx="1368" dy="704" grid="1" gridSize="10" guides="1" tooltips="1" connect="1" arrows="1" fold="1" page="1" pageScale="1" pageWidth="827" pageHeight="1169" math="0" shadow="0">
            <root>
                <mxCell id="0"/>
                <mxCell id="1" parent="0"/>
                <mxCell id="28" value="" style="rounded=0;whiteSpace=wrap;html=1;fillColor=#FFFFFF;" vertex="1" parent="1">
                    <mxGeometry width="1090" height="560" as="geometry"/>
                </mxCell>
                <mxCell id="6" value="user" style="shape=image;verticalLabelPosition=bottom;labelBackgroundColor=#ffffff;verticalAlign=top;aspect=fixed;imageAspect=0;image=data:image/png,iVBORw0KGgoAAAANSUhEUgAAAOEAAADhCAMAAAAJbSJIAAAAkFBMVEX///8jLz4dKjoADyfn6OlHT1oAEikAACEJHTAeKzsgLTwQITMAGC0WJTYACiUAFCqtsLTe3+CUmJ0AAB8zPUpWXGb4+PkABiPAwsVdY2yHi5Hs7e4TIzQEGy/Q0tTGyMuBhoydoKU7RFB3fIOnqq5nbXVMVF63ub0qNURiaHHOz9JBSVWOkph7gIYAABuYm6BaNtt2AAAL8UlEQVR4nO1d6XqyPBCVRbawiLWgZXHf+tqv9393n61MEhAUJDHQx/OzTw0ZSGbL5Mxg8MILL7zwQt8QnCF6DlwQpPvT9t1MFMV1FQ2tZuvl1Bc9KWZQ92sp9AzkyJaUwZQdZCvu++lT9OTaIz1JruFg0fKQY0+fjfq8atWxrKEK6bCUhj6bip7og5i/6/fEy4T04u8efsj9RJPriPcLC4WLSPSMm2E68cza8v0i1j969B39ndJQvh8gbyN64nXxoV+tT0tGhq2dbaHyaxG9BJXoV8te9cJGpgdUmLmTKMbsNJr70Y8/EwSRmu6X64luo+KXNvWT6Onfx/gt/3FiT1vv1bL/DD7Hq9AofG5jVfq/3UGws+n5yra3SG/9f7QZunFORFnvtHX0ZYeerDLc1/jNQsmbzS6v1LlOTVV2Zzc/H0GwtA1aRHvLd5qPY/9G6UVvWFO+X4xd+uOjIbc5tsJGp/QLqrE+aQRbl/r+8T8+U2wHSkDLXTf//VymVI7TQRH3REDZnj80xFbpsoifZA+if4860SNKU6EZ0/m1hkp2kffACgX4HnEAkgWz2bGAhP2v8LvNOJFEdKo7YjU7Bpjheekt44NgRUTUu+OHLz08qfbvnYhoSgzmxgQ+VqMugwgvOOC9iFpsaaZYwZQ8Jh5l5JBN/ZjZYY1lAp4II3+SrAlLZjNiO0QuGPoJqyH3MKSEPliN2QJb0Awuu2zZGqcJdPEBcRpmc9FYmq8DOBCOeNdml6kZ553lqGQrhk2CMB74hC0Tss3oLmCdykzf3AOAT5gsGQ9swDoNxXo2frYLLZP1yCNIaTlicxrrTJHaDUP6GsDOvC7yRCPIFIJ1YD/2Hj4iahWttMQoy5El7D/hYGBlH1GoAz686BkL8Rh8AylGTZzBUDM9E3PJ4QaQtokXPIavBXjLIR/XCtSYFXMZvg7eL4tU5pTA/YTAWhFlEoPMnzF4nWwmmdVHrN2JuvjM9LnLy/+HZSrMcxtffEeTgzG8YAqxtcfrCXeQbUN+qg4H15qgjZgd+3Ex9xccMqNv8HvELagud00HGzEWk8wARZPwe8QmixJlMZF+5pSaHE+J4CVaYlzT0+W8z+GYtvXBcXP5PeMGvi6bBHEsLACfgmUerwGOMl+P5gdQdCvGXGShE1dNPsnMhSckgJpc3u+DR9r1sMok5PqQSmTvl+vDs3Ui2UIKpTKHw+ZZjb4TKuHf/4bP2IfZMwTtw+HlGxo8CwoOQnVpZg8RT3uIhNrDZ/o0ihCf5nRx/HmeK/iaUL80iy0sZofb15hDbCHmPB+SfRq/RywhPhSTilIV7lpgKzbGh0PMhJ+5gEsZXC3SDWQuFb8QWMW5NkFnM1m+lN+xwgifPvF6wh2ApuOWbINtKO84PeAewB5zO6SFLI24U2A4IOVkEadwzi3uiHRpcF2mRzg/NLgMXwd+tkydBY/RI6iLcr54DF8PkChSeFz/HENZlCfwTjsccxs8jjChKkpokSksJB47BZdi8AzP7gMsVsI+DMZX9sSWmKZgsph7HaCnJefIeuhmgJQta+8fF9NIruAC0ylE4Yyvf+DaamEeGwYYDJnpMeLc7conPM8FllMyZjgqvq0v6PQ3B0i8Szq7t30k96g6cPfJh5uHVszKsyH3qNCC0ZCt8AHelcOovo3c1rQcNiO2hQn1ygaT1Kmq4duaHbn3NEjx5QibgVWMCP9AZ+6uDT6g/kzSWvuQgYQv53Xn/uFg8A/PSmv5FSOZ3ATugh4FRAmTi85nxWwQQhdXTDFbBVJyWd3YPW40piERkMWeZgmKcMAxH11dp1AiL0pwSHGNb0KIYOkPhfzRMCECItEXukrwoZH52cPmUesmpOiGkPCIogwfFK2FHDb0w/1/NDlRNwU8L1SXmqQhN1CF0TpHD5Z0IKAox56mCrLsQ80zMXWt0/w7ktMxLYrhnw55mi8rQd/3KwzmszAn389NuNv0WWIQLCfKNQ+khcL3m+yd/kn2rukVrViTarybZyLdhkYFj6BsuMNlWialuv9yKsk/TRTOOhJYDH5oLhWnfJ6ZkMhzV+vlNFV/OYSDyJ+PTjOkJFXMrdnPPKkbRIpLZNeggTQdw/YU95c20dXsBMk1qE1NQzuJJsQMvhWjZKq1iFlr/Qq9LYTKuPSM60k5iWKWqI97MG1ZsUvWrUhi0xG6ks9ybG+7jwaf70UTcAeOstoPgumiTPcgTcztvM+JXZyL4yVrUID+WinyWlbirDiPcEaYniwtLv5DYj6/gjbaugX9YhruNqffg9EwRPeFlJE7WeaMX7rw7MLvTG335BOojVtYhLIy2VxvF3Wz0+24WtWasR0OlyXh5H5XXOXyUykx1VwgcIajV/JcBtOPla4ZRevwQ7vr6avFtMp18b/cwo40pKf5cssCT3Csf91eQkF6tvCTH0Z9zfM8TTvbxdXsNCr1dKhfje28JbL0BUMpqhEN7YJ8dam4A9X30zT1fbWu+i8Qm0rG4Qnpt72b+4CO/sXVRV56Od5l84274fhycw8Mj7xVXPCRDx69GVf7H63ydLiTZ+x9dZYzTI7McaWmCb1CHeVZrv/copeq+cYtVbyhqbot5fhEd/Gk058x5JTmWFC5NMl58k0kf0LvD5tLqupIGwmN734vwwdNpY1W7J8/pLaCyYDEszlSRClVR2JspIIJNXp8EFOHFbxTy0g2mE4iOFACeuLoxcYUZbjFsm43kigr8dixCyPMKdNoucxEDCyZGlZsjk+lqJSZiUjR3kqyI5ptM6BUnqWxmQ2lZJyJ6OTeGVtyzGgZLDTqjggYd+PQa41LpiTZav/Kj2RRdOZcljqplFetByMmqENM92MiYtzytY/cLgqYE7Ed/z5VRNKZJXrBiezFNvz7ASkEcrqhZAi+yPZpUdhKirnYcXUzwxaHUxZ6VKEuyBhyB+xgEe9O2wU2JRVK3HgDW4H4WvZDNeYRUVdv3TlvphGRo6G3R7YiWQSeyGjiFoiqNx/got5gXYU620JrsMSVZs3LiVUca/KjtmSALT5qbBzVDfEu5kShywj48L/pnfkRdhmYtjxgD9JiIG50lzbA61v03bi7WGJ90agsHN8cs4wOmvo88K0ks0EghbtySG6nG0r+ApNnSHb9DYWb/wjuS1APeJ1adt0Ft/ca/0QocIBQu+8OLkxq8NlFgujTmo0i8DXx9jmQJ+EL356rt6uwpRDexKYuAg9W3Vsd94RcE++DmrlgkzSZMw5JhHY/aQjSsuX+RyRkDV2tmC8DVv81SKtwdZbbC0sBWNXuu0P613S4d3QJ5l7dpYffRb8+IWE+uNdHATN5iGK5exhT+Ih32OtwUNEnRXoBqFPzZmoX84X2yBYCsBFQbjkq+L/E8200BuZ7uWkwVlyISp6EBWSlbtC5AjsZTzpLfiCzr67sO2H+sCdOjB0gP3iD8QXUEc+WFRyBqTIrDQHulyGwlVsbYEtQaRKB5I59Q8onAbOBVi1ToHjvmUtKgMkyw3KXUzinbWvgZVpR3gsbtSvEPg/gCM2JyzP8sIpFkmm2BFyXryCTBOdcTKcFJsCN2kqP5TGHfcU27QUgSix1ynAHsK5VzjQBeGWlPgtsQ6Htd9sCtxoo05ZgS0Ry2rYGtGAua/KFraEuYGLscKMxDf6+3avvaoIF7LXrGiJwSvkwVz8Noyy/X5KGAUUjqtECI4DNK7H50HdIVFNTVsCq5sqqg6Lps73/Aaiaqw5REP1alpB5sQPm3y6GF6BKu8Bq2wrfmca86nQNoVPvsvlFgCBXftupSvS+IfUqFmPl8u0boPD3qqQy67EtqEkdQ+BMRjHnC0pWTAs3loCihaJBNCr+3j/A2YtSCPPFNk9mCahVLDhnsHp7mwwmAJ1Z6ACLNVBfCr2qAR3nCxEi9MGTGdGqC8Si3O5B0NHrNNQF4+ygtBAGYgm7dQfvEUAo/5Kwv3hJ+JKw+3hJ+JKw+3hJ2H8Jv29LKB12w54DshVVEkpy3wGV+JUS/hm8JOw/ChKq4f2f9AzFyq9VcxL1jqPYo9j/72+JaP13VQrtD3Xl7yA8lJ2/BOrfQe/PJl544YUXuoX/ASK3sua17+i1AAAAAElFTkSuQmCC;fontColor=#66B2FF;" parent="1" vertex="1">
                    <mxGeometry x="305" y="450" width="60" height="60" as="geometry"/>
                </mxCell>
                <mxCell id="8" value="" style="shape=image;verticalLabelPosition=bottom;labelBackgroundColor=#ffffff;verticalAlign=top;aspect=fixed;imageAspect=0;image=data:image/png,iVBORw0KGgoAAAANSUhEUgAAAU0AAACXCAMAAACm/PkLAAABCFBMVEX///91dXX/zTP/zTRsbGxxcXFra2v2hBBvb2//pxSlpaV3d3f6+vr/zC/v7+/j4+PZ2dmSkpKbm5uDg4O/v7+tra3U1NTJycleXl6Li4vg4OB9fX3/pQDu7u5mZma3t7f/1Dufn5/vdwn/pgD/0Sr6oRRscHj4rzH//vj/7Mn/9uj/2aX/7NG7u7v/yhzzoDGkkmJpbnn3mhL0qDVQUFD/v1f/05P/zIL/8d3/37b/xG3/tUT/rCT/t0z9xHX+0kX91WH857f+3pf4jBP/3azw6Mj2khT61W//1Jj946X/0lLyxzXSskm4oVjHqlCIgW2WiWjwjCH204yvmV365dDZtEb3yGX4xE2wzZjLAAALeUlEQVR4nO2bi3bbxhFAsdJiBeENgsSbQBnJtmSbrO0m8SN2kjZp6taJ06Zt8v9/0pldACRBQJZok6yUueckJvEglpezO7MLSNMIgiAIgiAIgiAIgiAIgiAIgiAIgiAIgiAIgiAIgiAIgiAIgiAIgiAen35xceg23B2+OCu+PHQb7g4PTk/PHh66EXeFi7PT0+L5oVtxV3hRnEJwvjh0M+4IL6XNV4duxh3hLfR06OuPD92Ou8ErafPsi0O3427w1amkuDx0Q+4CF2fK5ulXzZZLykhb87CobRYv1Ya3RUE6t+WysXn6Wr4HuwWNodvyqLVZPML3zwtK8NvzvBk3Ia9f1B2/eHPoVt1W3rQyT3Hx4+tiI8FffvMtrTFdk9enKzov6px09mB5wKXjLP58uPbdKi6KFZv3vvy6WE/wUuax85dDNvEW8XjF5r17z+41Ufq63o8yj52/HbSNt4eXaza/+67t9N/L3VLmsfPNgVt5W/iyWA3Nk5M2OM9w71/PUebR0eJaaSg2zfG1L+yaE9PdstG92J/yw7bk1dlqaJ6cLIPzLco8kjKPFkOzI38ShKkZqTcm56NrX9gr9bK1OV5hvtX3mDJubnXiJ+X1iswfToBnjc1iKfNoIKl7odB1puvckj5NXb+BTcFEa1PnRku51feYGKycbnXmJ+RitaOjzGVwPnvVyjxa9CZ1X+iMi7LkjJWx9jE2LcZ0rhA3s+mXPMF/x6WhH7yvvyg6odkG57MHf2hlHvUmdddgjKFFP9SZmH6cTX2W+TU3+gK+YEp/XB08NFdSOqYgRVcm/K83qc+gkysfNtr4SJuT7b6Az9l2Q8MueFt0Q/Pk5IduZILNnqTucmY0KXxuMOhnS5teXM0j1fFc38/kCxvCTm6yo2rua9NhmxClao/n+xBw8jw3rsZZe+loXsUYilk2Nhj3fW95GTyyit32kpCgxtXY+wSuPkyb0pehicEJMo9XZTo9ST3mTDQjlVcapdfa9NISsgnnFb6JSsHkMVkiZBKPDUg5IoyMQZu5kMOwpqWihM1CJN5EwEllqq5n4htejmwtFDja8DLQ4voy9qzEnWKGh7qlSOwRNqacfWJxvTxYrY7a4OxGZu9M3dRZ2L5xXbeNzYzrzBDwPxHAu4izXB4CXdsAfXHJcK+hs0GbIePKZqDjZvCVCi4g1xnyx0o5pCzQaIRaWKJNgTbVZdwctgvIjkZuq5E95HgsE1uOJDeiWCncWz7bkOks/r5xKnzVYH2LsmmDJ2vs+SPOMDo7NnGvDntn/CY2eRp5UajOmMDnTjKvgoHGtN0YQnw6dRubKXissgyOwcahTTHyvRhqBrb7jP+w6AnNz/64IdPpSeqprnfqZWWzgq8wVW+ZYXdtjmF8kINYpa9XSKmpqHpsqgEERloe4XDN5XAN/mCsbrKQsgkZXsjSN4YXGdpUv5LfXHWn1Gsea6HZK9P5x8a5QzZziA71nqOVjk04Sw1hnSwEyiTQfTdtcjXZgq4eozZLnVSWidexOWv7i2wd2FQSbcxVn8TYVTwqNkKzX6bjbCT1AZtu2YbBCGV0bFqNqY3qXUjKK2zmWERM2sLBtm2tYzNvywzI9eGKzfYzdsnzopvQh2QuNp6iCzaqS2kTLPHakvzi6zZh2KyDpFtvwhio+IBN+RMtWbMJdW8jTV52zzbfFJ3QHJLpLDYeXoDiPV3fIm1mgjVTvOomNq/KQqs2g6tstp9+EJtnncJ9UGZPUh8brTZtaoVWXW+ujIdmj832a21r01wfYLo9vZEGuX7fNi86oTks01lsJHWVYuu2y0peZaHlZpmPOuNmyIx5c/qwTWPYJky76i7heV43p6ft55iYj/ZrU6b0ZWgOyTxH+pJ67Qm/P+ZSZbOtQ7FckUmXyxCGF2Bz0pyERcuAzdZJyDZtwkgi1PoGTHS6OR1Uq4kXJvHxnm3KNY82BfXKPD9/9+NPT548+enHjXoNR8gUhbiBzsqssemXauHWgzwNUeQK5SaDvA02MUJnau+gTRiRsWK1TaPHphbC7wEn2oGci2VCCVM2scDE6acNvzQMQ/u1ibcx2tDsk3l+/v7np0/v39f1+095XnWmE3MQJcIghImcwBKznlmaUFbrsBW+AQYRTk/yIIeD5MxyZqi9xrBN+D1g9pPi7LPHJvhjIk1hp/Dl2gsIbGeWMTYpTbFFsbZnm6+KZWj2ynzPnrIlhl6tnx8bhiy6DS7HQpOribQpcEFe50x+Ew+n5LouJoYuS6dUqLf6yp0MmHivJuqZPISHIwM3w8HKhKULrCYjHa/KDJWqTDgWSv5Y6LKoH4uVna7QS2Wz/Ywd8rpoQ7NP5vE/V10iPFxfknXnqWXlaaW0VEGgnGSz3LLScR3KrplbeeBraRDI48ahZQWRNgrS1mYQBGv352L42LDSxnJzEKSq7BkFgRToVvAJ4aQ+u4JrzbQoDVT1O50sd7pwqmywDS8ybbdcLEPzsz9tynxn3WdddGNjgta/mmBfdcw1FiDsq49Z29099APn7ogXbWj2yTy2NlwiYte/8W3lsqhDE2Qeb4yZP+u9Npu7F0SHt4Uq3Htl/nS/7trLJKRe6umHP/n3yNeFDM0+mc47lYD4zG06vPBx2Rxf7H7Gext5IEOzV+b5Exma+OyGx1VkjvGmtXyZf/ijf4fIUbNXpnMkZeLCrh02HR0qtzFXUXrolv8f8hBDs1+m817ZBJl5m4wwmwf4rrtKTACPnz0bkll3dGZr5jIL4R0EaXM/Xd0dWX0DtK3YLCrH+7grOcz3gzKhPGKNTalPRiRKVDaNfRRJeRr1PAuTJSWQVJrVLS3Mw9Yaz38Ykuk4rLVphKmuB5aep0Zrk+/h0Qk36X2uyEs8FZtetw0HtvlmWOaRvoxNTYMZc5bYWtDa3MPdVNsvM9TpRvJxG9e1I9khvKTuF3gDaap5mBA9GcRgs340R8vqqPYir/4wf+eTzX8NynScpU3u2flMi0vPDvdpcyyYAT/kvMyZjkunec5kJdHaDCAVJgFMJeyU59DzNTMMcx17zRQ6UoKJclSGZYj3NQV8yI6b/PD1sMxzaxmbuC5pGcxg+rKn7+Hhvin2dD/x8eEOG/6rL1n3dFAFvkrpLMWtGYxJIGyEN4dmOLx6WlTioyWm5uJTTWZ45dU+GvuXhTMgcyMLsaZqr7PQHhZpphiEapWNx9qkeUjHE5iEQmUTHIIrjLpgosZN/A1k43iE/Ql2T7VKPqCU7DpzPvx14fTKdM7/3VRIE7Fc7ggbmzv+nSXSpiVXPdPJis3V2ESbnsgty4JJm7Rp48xiwqwcp79mkk88vDECB1jJ7te+/vOb8ul0+e/9ZrloxBuZ+NRZKkNzH5Xdik3Igis26xhrbZYRPpDs1TZLXJWGHi5vXLjRLIm0WSAfW97HoufLd+BzQ6ZzrspMHMNndV+Xr409JaHa5kwZilZt1gPosqfX81xpM0tcO8HmQWzGkdo6t/bQ3Br7kbPosakW5DAe/XrVo1L3a/a1JCdtTpO55mJlNmwTRvZMm4aRZpZjbZrDcQISzwx+gXmZaW5uwq8xs7V4X0s1mI42qZc3w6gZOMXcVC/Lvay+Tz9Hbb6RJHj7qC3Ns89rm1ghfS7DcpIkWBDNglmSYAfKRJJUFoxGkzJJMI1N8yTR97dSg+moG5zv6ztszbCJtyzVP/td83CvMd416bqZu7tDO/bE49+6PpuFjy46rW5eA0xHnZrT6JPJ6LbQdeimo8WvI74h08hJ5jW5+GXR+ly8u4RZMu/ctxSjg//13S3iRZ2OFo768/TpSCy7uy5Cur92MyAdAb+0T7l7k7D+a9J8RreDbs6Ll5frfzHg+nEc+4f/m1CCIAiCIAiCIAiCIAiCIAiCIAiCIAiCIAiCIAiCIAiCIAiCIAiCIAiCuEv8D/3pEoZgovdFAAAAAElFTkSuQmCC;" parent="1" vertex="1">
                    <mxGeometry x="640.89" y="301.5" width="154.37" height="70" as="geometry"/>
                </mxCell>
                <mxCell id="9" value="" style="shape=image;verticalLabelPosition=bottom;labelBackgroundColor=#ffffff;verticalAlign=top;aspect=fixed;imageAspect=0;image=data:image/jpeg,/9j/4AAQSkZJRgABAQAAAQABAAD/2wCEAAoHCBIVFRgVFRYZFhIZGRgcHBgcFRoaGR0ZGhwZGhkYGhgcJC4lHB4rIRgaJzgnKy80NTU1GiU7QDszPy80NTEBDAwMEA8QHxISHjErJCs/Pz8/QD82MT0xOj86NDY9Pzc0NDQ0PTQ0PTY4NjQ9Pz40NDE2MT00NTE0NDQ2NDE0Pf/AABEIAHwBlQMBIgACEQEDEQH/xAAbAAEAAgMBAQAAAAAAAAAAAAAABQYBAwQCB//EAEMQAAIBAgMFBQQGBgoDAQAAAAECAAMRBAUSBiExQVEiYXGRsRMygaEzUnJzssEVI2KS0eEHFiQ0NUJTgoPCFNLwJf/EABoBAQACAwEAAAAAAAAAAAAAAAADBAIFBgH/xAAoEQEAAgIBBAIBAwUAAAAAAAAAAQIDEQQSITFBBVFhExTxIiORobH/2gAMAwEAAhEDEQA/APs0REBERAREQPJmqjXRr6SDbjY3njHVLU2PRT523SqZXi/ZOD/lO5vA8/hxlDk82MGWtJjtPmfpYxYJyVm0el1ieQZ6l9XImIgZiIgIiICIiAiIgIiICIiAiIgIiICIiAiIgIiICIiAiIgIiICIiAiIgIiICIiAiIgIiICIiAiIgIiIEZnz2onvIHzH5XlSEsW079lV6knyFv8AtK5OU+Yvvka+ohuODXWLf3K0ZBjNSaD7y7vEcj+UliZScBiTTdW5cCOoPH/7uk/nmOAphVO9xxH1eZ+PD4zZcLn1/bTN571/2q8jjT+tEV8S78LjKdS+lr24/wDxnSBKVl2L9k4blwP2Tx8uPwl0U3lrg8z9zSZ8THlDyMH6NtemZmYnJVxyKwUnf3cBfrLd8tMcbtOkERM+HbExMyR4REQEREBESq7X501MCjTJFRhdiOIU7gB3mBI5htFhqJKs2pxxVRcjxPAecjRttRvvp1Ldez6XmMk2UQKGrjU536L9lfHqZOHJ8MRb2NO32B6wPGW51Qr7kftfVO5vLn8JtzPMUoKHe+kkDcLm5ufykDitkh7VXoMaY1XbeSVtzQ/kZt25H9nXn+sX8LQJ7BYlaqLUW+lhcXFj04TpkVsz/daX2fzMlCYGYmtaingQfAgzZAREQEREBObG4paSNUa+lRc2Fz5Ta1RRxIHiQJHbSn+y1fs/mIG/LMxp4hS6X0g23ixuLH853Ss7CfQP943oss0BERAREQEREBERAREQEREBERAREQEREBERArG0r3qKvRb+Z/lIWSGePes3dYfIfmTI+cVz7dXIvP5b/jV1irDDtYTXSrltxN7Cw8Onz+c14l+U0I1jeQVj+lZim42kJZtn8ZqTQeK8O9eXlw8pVwwIvynZl+pTrBtuIHeD+UscLlTx8nVPj2qcrFF6anz6WPMMdp7K+9zPT+chSfOZJmJFy+Zfk5Oqe0eoV8WKKV0tNJrgHqAfObJyZc96a+FvLd+U652mG/Xjrb7iGrtGpmGYiJK8IiICUGkvtczOreFdt33Y7PoJfpQMc/8A4+Ya23IW1X/ZcWY/A38oF/ieFYEXG8Ge4CVnbn+7r94PwtLNKztz/d1+8H4WgdGT4taWCSo3uqhPjvNgPGVyjTxWYMxLaKQPfpXooA94zrx5P6Lp24XW/hqb87Sa2RVRhaduZYnx1H+UCCxWyVWmuujULOu+wBVjb6pB490ktlc8atelV+lUXB4FgNxuOolnlCwI05mwXhrfh3qS3zgbaVZ/0mV1Np1tu1G3udJeJQ6X+KH7bfgMvkCj53WcY9AGYLeluDG3HpJnajOjQQKv0r3sfqgcWt6SDzw//o0/tUvWedrN+NphvdtTHwLG8DOC2XrYhfaVqhUtvFwWYg8zc7vCaszwOJwiMmvXh3BU8bAnhu/yndy4z6BInaZVOFq6uGm48bi3zgcGwn0D/eN6LLNKzsJ9A/3jeiyzQEREBERAREQEREBERAREQEREBERAREQMQYmrEPpVm6AnyF5jaYiNy9iNqXi3u7HqzH4XNpzO1hMmc2IflOFtM3vMz7dJjrqIhpZrm88mCZ24DA6rMw7PIde893rM9xEblNe8UjctmXYckXI7PIde893rJSIla9uqVG1ptO5IiYkczpim8la6EdCfnYyTkLkb72HcPlcfwk1O2+MydfFrP12/w1OeNZJZiImwREREBIbaDJlxCbrLUW+luXep7jJmIFAwOd4nB/qqyFlHAE2IH7LcCJK/11o23U6l+nZ9byy1qKsLMoYdCAR85yfofC8fYp+6IFPq4/F41wtNSqAg9kkKCODM/MjpJXbJWXCoGbU4dAWta50tc2lop0wosAAOgFh5TFSmrCzKGHQgH1gQOWYNa+ASmd2pDY9CGJB85AZbmlXAu1KqhKE3t3/WQ8CDL8iACwAA6AWE14jDU3FnRWHRlB9YFWx+2aaSKKNrPAsAAO+wJvPWyGUOrNiKoIdr6Qfe7W9mPjLDRyvDobrSRT1Ci87YFD2movh8UMSo7JKsDy1AWKnxHrJE7a0tN/Zvr+rutf7V+HwlnqU1YEMAwPEEXHkZzUssw6HUtJA3UILwPn4NU4um9Uaajuj25hS1lFuW4Sz7X5O1ZVqILugIKjiy8d3eDLC1FSblVJ6kC/nNsCmZXteFULXVi67tSgb7fWBIsZx51nNTFqy0kK0UGpieduF7bh4S518uoOdT00ZupUE+c208MirpCqF+qFAHlAr+wf8Ad2+8b0WWea6dNVFlAUdAAPSbICIiAiIgIiICIiAiIgIiICIiAiIgIiIHmcGdPpov3i3mQPznfIfaV7UgOrDyAJ/hK3Mt04Lz+EmCvVkrH5VWo1hOFm5zbianKb8BgtVmYdnkOvee719eNrERG5dJ1RSu5MBgdVmYdnkOvee71kxESC95tKpa02nckTBkDtBmJH6pDY27Z8eC/wAZNxeNbkZIpX+IRZLxSNy6MdnlNCVQa27jZR8efwkTUz6ueBVfBQfxXkXNmHw7u2lFZ3PJQSfHdy751eD4vjYo10xM/c92utnvafOktgtpsTSbUCj7rEMvL/bbpLdku11GsQlQeyqHcLm6k9A3I9x8zPndegyMVdWVh/lYEHyPKa5epjrjjprERH4Q2tNp3L7fEpexOes/9nqG7Adhid5A4oepA3juB6S6TN4REQEjc0zelh9PtNXavay34cfWSUpv9IHCl4v6LAkf64YTq/7hmP64YPq/7hnrA7O4RqaMaQLFVJOpuJAJ5zf/AFYwf+kP3m/jA95hnlGiiO2ohwCoA7RFgb25cROzBYtKyCohujefQg984s1yKlXRFN00blK8hYC2/iNwnXluCShTWml9K8zxJO8kwOyInm4geomJ5RweBB8DeB7iJiBmJ4RweBB8Dee4CJSqONqnMTT9o/s9bDTqOm2gm1pdYCImtaincCCe4iBsiIgInkkCeoCJrZwOJA8TNkBERAREQEREBERAREQEREDErG1tW2gdAx87AehlmlWzzDa612HZCqFHJjvJPgLzXfKW1xpWeJqMsTPpC4HBau0w7PEDr3nu9fWXiJx179Utpa02nckRMGRTOmLy7AAk8ACT4DfKJVqF2LHixJPid8u2OBNOoBxKP+EyjTpfgKxq9vfZR5kzuITmyuW0a7t7YkIi6j2tI4gdpuQ38iJZKu0uFoD2WFp+0YmwCLZSftWu58Ab9ZWdmMoTE1GR2Kqi6jptc7wLXPDj0lnfNcvwQK0QGfgdHaP+6ofS5t0nRKTFLaTCYgezxVP2bjcQ4uoPc1rqfEDxlZ2py6jQqqKJJR0DjtahvZh2W5jdzvLQuaZdjQFqqFqcBr7Lf7ag4juvv6Sq7TZSmGqhFYsjJrGq1xcsLXHHhxgRmFxDU3R195GDD4G9vDlPs1NwyhhwIBHgd4nxQz7JlaEUaQPEU0B8QogdcREBKb/SBwpeL+iy5Sm/0gcKXi/osDowm1uGREUh7qig2QcQADznTR2uwzMqgPdiAOxzJsOc24HI8K1NGNFCSikm3EkC5nSmRYRSGFFAQQQbcCOBgRe3NRlpIVYqdfIkf5W6TdTqN+jtVzq9iTe5vex33nPt79Cn3n/VptT/AA3/AID6GBWspq4qupoUmYAsSzljuWwABbiBuO4cZYMnyP8A8Rnr1agZVQ8ARbmxN+O4fOa9gVHs6h56wPJf5yS2uYjC1Lfs38NQvArSHFZhUazaKK8t9gOQsPeab8TslVpKXo1SzrvsAVbd9Ug8e6cmR4PHNT1YdwqFjcagDqFr33eEkf0fm/8Aqj98f+sDv2Vzpq6slT6RAN/1l4XI6jnIOrVr47ENTD6KalrLvsFU2uQPeYyR2cyLE0a/tKmnSVYGzXN2seFuojNNmaq1DWwz6WJJ030kE8dLdD0MDlxeyVWkuujULOu+wBVj9kg8e6SpweLr4VUc+zrBgdVyCQL8dPA7/lIps4zHD/TJqTqyi376bpaMmzNMRT1qLHgyniD074Hz5MuqHE+wD/rNRGu7cQt7348Jc8iy6phlqNWqB1IBvdjYLqJ97xkDR/xQ/bb8Bln2mJGFq246flcX+UCq1cVicfVK0yUpDlchQvIvbiT0nTW2NqKL06t3HLSVv4MDunfsIq+xcj3i5v8AAC0tECo7MZ3ULnD176xcKze9ccVbr3GcW1uMeni0YM1lVG0hiAbMTvA8JjOABmKFeOukTbqbA/K0bVqDjaYPAimD++YHr9A4vEj2tWoFLb1VrmwPDcNyidmf5m2Gp08PRP6zSAW4kDhu/aJvLdPnWeLUfHMqGz6kCEncCFBEDsw+x9V11Vaumo2+1i5HixPGaBWxOX1VVm10W32uSpXnpv7rCd36Pzb/AFR++P8A1nNjMizKqAKjq4BuLsNx8oF3pOGUMDcEAg9x3ibJxZTQZKKI9tSqAbG43d87YCIiAiIgIiICIiAiIgYnirTVhYgEdDNkxPJiJjUiFxWVEb0N/wBknf8AA/x85GMpBsQQRyIsZbLzRiMMjizC/fzHgZpeX8Pjybti7T9elrHybV7W7qzMWkhissdd69pfmPhz+HlOCc1yOLlwW1kjX/F6mSt43ElpR8dhjTdkPI7u9TwPlLwJx4/JmxA7A/WLwbgtvqsZsPhuROLN0amYlDyabrv6U1XYAgEgEWIBIBHQjmJ5m3EYd6bFXUq44qRv/mO+ap2DWrxmWZZZSQ0UorW7lG6/U1TvJ7xcyl16uo8wo3KuosFW99IJ5b5rm3DYZ6jhEUu54KB8+4d53QOnJcvNeslMDcTdu5BvY+W7xIn2CQWzORjDIS1jWe2phwA5IO7v5n4SegIiICUz+kE7qXi/osuc1VKKN7yhrdQD6wNWWfQ0/sJ+ETqnlQBuG6eoFV2++hT7z/q030/8N/4D6GT9SkrbmUMO8A+sezW2mw08LWFrdLQKvsD9HV+2PwiWPHYZatNqbe6ykfwM206SjgoXwAHpNkD57l+OrYCo1Oopamxv48gyHgd3KSuL20paT7NWL23agAoPfY75Z6+HRxZ1DL0IBHznPSyrDqbrSQHrpECK2VOLZGaux0t7gYDV3t4dAZE/pfFYSuwxGqojcOQIHBk5DvEvM016COLOoZehAI+cCp5xtXRekyIrFnUr2gABfnx3zs2KwL06TM4K62BAPHSBYEjvkxSyrDqbrSQHrpE7oHz/ADoPhsb7crdCwYdDdbMt+R4/KWPLc3pYxalPSy9mxDWuQ1wSLdJM1KasLMoYdCAR5Ga8PhKae4ioTx0qB6QKJh69bLqrK66qTfAMBwZTybukvX21o6ewjl7cDYAHvIMs9airDSyhl6EAjyM5UyjDA3FFAfsiBWNmcuq1qxxVa9rlluLamO4ED6oE1bUn+3Uv+P8AGZepqaghNyqk9SoJ84G6VDa7KahZcRSBLLbUBxGnergc7c5b4gVHA7Z09IFVWDgbyoBBPXeRaclTPMViayrhgUVfA8eLPyt3S11sqw7HU1JC3UoLzfh8NTQWRFUdFUD0ge0BsLm5tx6nrabIiAiIgIiICIiAiIgIiICIiAiIgYnHisCj7yLHqNx+PX4zsiR3xVyR03jcPYtNZ3CLpZQgNyS3dwHykiiACwAA7hYT3MTDFxsWKP7dYh7a9r+ZceYZbRrrpqorjkTuI8GG8fCQFfYXDk3V3XuOlh8N1/nLbEnYqlQ2Fw4N3eo/d2VHx3X+csGAy6jQXTSpqg524nxY7z8Z2xAREQEREBERAREQEREBERAREQEREBERAREQEREBERAREQEREBERAREQEREBERA//9k=;" parent="1" vertex="1">
                    <mxGeometry x="640.89" y="201.5" width="163.31" height="50" as="geometry"/>
                </mxCell>
                <mxCell id="10" value="" style="shape=image;verticalLabelPosition=bottom;labelBackgroundColor=#ffffff;verticalAlign=top;aspect=fixed;imageAspect=0;image=data:image/png,iVBORw0KGgoAAAANSUhEUgAAAU0AAACXCAMAAACm/PkLAAABBVBMVEX///91dXX/zTNycnL/zTRpaWltbW32hBD/qBVvb2+YmJhnZ2eTk5OgoKD39/f/zC/w8PDFxcWDg4OLi4v/pADy8vJiYmLm5ua7u7uurq7g4OB9fX3a2tpeXl6mpqb/1DvNzc3vdwizs7P/0Cv5nxPAwMBVVVX/68PKysrynjH3mxJvcXf/7tf/+/L/nwD3lhT3rjBpbnm2nln/9OX/tz//zYX/w2n/v1z/4bj/0pX/2qb/yXr+3Hv/uk36tlz/yxn8rDv74Jry6cP+02v9z0b86L75jxD/6Mr90VX+4qfqwDvBpVSfj2SGf26Og2nNrU3fuUOtmF7wjyX3z3r4yF320Iq3nm4a4G7cAAAMhUlEQVR4nO2cfX/bthHHScNgBPFBEh8lkVI52XK9JE7dOUnT9EHdmtVdm67tuu79v5ThAIKPoBvlY0m1cr8/HAkiCOjL493hQMUwUCgUCoVCoVAoFAqFQqFQKBQKhUKhUCgUCoVCoVAoFAqFQqFQKBQKhUKhUKiHqZvr5zeHnsPx6EUYvjz0HI5Hnw0G4dNDT+JodD0YDD479CSORVchpxneHnoaR6KnQHPw/NDTOBK9EjTDV4eex3Hoc0FzcH3oeRyHXgqYg/D1oSdyFHo+KHSlWq7uOhx1l67CAmb4edFwjWb63rpRNAehtMkXoXqF2lq3Fc0v4D3Yavji0LN6qHpd0hyEUPx4EVZmitpWX9RovlQ3vjRTpadffnyo2T00fTWoFD5VcMNaje7js9HGO9wEH5QGdZpfq5hUq9F9fHZyusEa0zvpKqzRPH/8jXr7TPEDmKebfx50kg9GtzWa5+efPCrNtKjR8dv89PR09PfDzvKh6FWD5qNHnwwaxvkPAfNk9K2+dzTuKuLt3no632oaUdHxgetF2DDNR5VxfmUAzBOAeTJ6o+/t2LQtOzCMxLJYPN1mGoEtOj50fRY2TLNunLclTI5Tn4AOidkWcTgbaI7HW0zDIaLjQ9d1yzRrxvlNBfNko9/V7KHJ4AXNt5jGkdBsm2ZlnI+vK5gnPUEdaJLYriv2DSMFmvE2nvM4aD4N26apjPPx9UcVzJONPqhzmsRvhyLDuIwJsbZyg8dBswzp5+ePC5iPvuvC7AvqgqamPQ/S2VbzOA6an1c0v1M0H4UdmCej77Xd+2hureOg+bKkWZomGGcH5mik7Y40G3oedk2TB6IuTH1QR5oNhR2vyfWXv3ZgjjbaohzSrOvmmcY0dTBHm3/p+vfRhNAuinjlijFfDoezXH46nwVp6gezrOpQ0rx0/TQNllnrhNFkyNt9Z5o02/NloGvWjLAHFTWPhmlqYY5Gv+n699D0YkrjNbziS0/b5YxMyghhBJoy3+avTf6WmhPVo6C5ZpRACsto2gCxpJZoJ5Yd1MBNCZWnsmyntvLSjrAHFdsY54+/+yOY+qDeR9MyTWtSHMCWhmuLZZIFgGd2bf1EVVIKNF0joNWSyq5SrHFq1dZa9lqN4tN6c64O14+wB8maR5W498Mcnej6vxPN2RS+NeEWxG9+V7y2+KLJgu/Mit4OHDdk8iMqV6ZucbaIEbP+gV3UU1J4x6g6lV1YczkClSOk90rsLn0VtrxmL0x9UH8XmmQIaEgQmBzPCr4q9dfzZD5xwGKZjD2OAMYtbJgnSTazABRdybP5glVwOecfMFauWVdgsHSZjaNkIoxX+JHeEfag1pryDpj6oA7r9DSf1LSG4NOgCZBIYTcJfD37sug9BzTyDhU0uR0p7ycMTFJbL/hnlnKjLj81EXcvdLaUE11aJltMyhGUt5wL4mq8HesqrJc77oSpD+qihmTVtQAeTZo18wUzs6v4MhaOD145zeOkiRF5k+a+bVehx+UUY/42ijn9Vdnss5WnG8FWI+xeouZRmWYPzDOhzZeaE3QrcraOpjp8zr+btar1X1vFdxc0WX1n1Klhma+rdo/TZNxzjuMirBXN1QisXiKY8BHofhIlUfMosyMtzLOzH358+xO/W//9Nu9uA0tYNeloWmWW4vJ3rHEC6A7RxmkcBwK7Ja7R1ZDIdrs03prAcu1GC58Kzyr2Iah5lKapg3l29vNPnz55IlKQJ5Y1bCXJkqZfl6mhWV4Fyc6rJB2vUdBsXi2njj66XDpB4LjrxFgx6Tgd4ZIvm51S3Qhd6DsR1DyUaWph/vLTp426OnWbW2HvEtPN8rtEtjhHXXA1qCHzzVZmCF4glsMlDk+ChHj27haHJrHIYW1/mZeZe2RpR2B7ebjiOixNswVT3uV/a7AUUdds+KB3ypBKSondPp10tZGk2bofM36ry+izqqfjYk0UyANEM1/x0HQp75o51Y5A97EdelWZptYy33ZgQlpczze2o5nZLS8rBdtxIntvniThZCjkSCJbMi1gx2RGXpwycmymrrLtALGMakewt9nwe1/dhCpx11qmDqbZjJDb0YSAS4ZuW0NPS3Ne0JyIFDy9FA45mfjMrE45X5ryXgYTHUuauhH2YZu3zwrT1ML8UQ+Tc6qu9PZ3OtXvvTmkE8BzS97pIqWtfeY2Xew4d1NhohBrSns+gF4/k6bJYZ52UqM3fTDr32U7mp7dSBHrcronWkGa7kmDrn+0ZJ2ANV6B/dKJGJht9VjE/emLUJimPs98+6SPpmnl6gzb0RT5i76mA+kObXq3VKYDENobW/N+N/wXTiSQH95L+Xp7PX8GpqlfAf1QmaYlazFUefxa/rYlzRlTYVpJlXlFctkI6uACYeUIJkqTZnsR04NmuRlWkP0j7FzCa+p8JjfNX5VpEnOSB8yky3xWVhkt5Zq2pAmrwUYqPY/tIIcXTr2mJk4B40C0X7eWhsrXTE3KakO7kiY4TrM+QqJG2LVuwDS1PpPTLC0TQqURWOCMJgpnGX63pGlABZNV7yPIHS/AeGQNqQogHlQvGMSeyhZFe6oypCWMUVmzivStEWBVTxb7MM+nzx63YZYVo/JGl7s1k4V4jlDRLO1rW5riDMTM5bscysCSiFwmmnZREsmJWCSJJQx0YY7McSbc6ajsHazQKnIfAV9c8d4Rdq3X/TBHP5cxSICbiVJjUt7qaqm2LU2ZwJuUuLPZkNHqwoh9IZGeO7OZS0S+XjzIJCv3dgA9IGSrRWgWi3ZnNV0NxWKJ3TnCrvXik16YZz+WNC1+V2cW8SMjCsoFnko5t6Zp5HaxHGRFfVheF8jepyJPV59UGz0Bq/Wwp2uVIV3Gst2SHez5nSPsWl/3wuQr9Co/skgKrstKLVa1FZ5oyIiWJiWECpoOI6yZziQpLS8KsYdFKz+OX7ZJlTdYZpWED8t1OuGuYGWpU2asNiMyv3uEXes/vTBrNC0rdYYB4fNzHbP8sormMggCzXQ9Pwj8XB3QLlJOfEotxixKqxQHjoMSsGvJj8xGCp770MqbA45sXZ3Sm5HiA3Pl/cEIO9bVef+2hbrTCZmKe9rLfdh4TZZW805/T43z6Wq1znSrZy/jH006i8PkcjWb5ppRk8lqpjn+jhF2I++3zUhvmZzmzzKmp9V0XPHkdS6tk+CvsTp6+t/NSAtTZUj1sk6yEDeNeGz4UIu3P7lu32y0MEdnglptT1DRFJvb9XZUTa9H3D47MIswRJxpqRldwj+CMt3X2vfByft9c9alOTr9tEjaSsk3ovUIftmzM93wcNQ1zl/7K3J72p9+qIJw1FFvtZjdf0KsSxGmd1d9+7OKw//C8NWbNs+zX3pwEvPe06P5RfMxSw/88rD3aSz4EY1xofvRR8Kntr74E6RvEI6aOPUbQ4TdfwhatlefF5yX20tzKIoemlQ+upjDSuOeZ/deumqHo83/NK6TkB1sYsUZPKdleGP5J8rieWS4Q2OeSTObi0XN2DMy8NjRMIg8QzwJ7mXFERkc4c3jPJJnMcaZuOiqzwF0823NPDdvbo2csBZMy9/B1vQlMRy4b/OY/8kuvKFlWo7hBoHJYK8o8lkaX/JU101Ti0RRTEicGbBdl9syJEJFmR+xpHx+Rn5hwMotpT4HnfI+9P5d07vp9vuC52Yk/oepyK0VjvhNTnayH+iv+IrVgMIf/IkjYw6m6rI50ACKADoyApIYnrkqfIA5MaKYu9tpbHjwjP2Uwk4JoF3AZtLY8ALYdTP5C+tAu5g8HJ1uQL+ry5ksTYvB8xKM0XS6k4s8hmc+hYkpmgm0uJA6zAIjiWFUDi+AGrrrVjSn4sFMdyziexJzF7GYS5pinxnO4oPNO/t5Rk6rV799+3v9qWxvPl0OneFssqsF0Cr1Ig8ItWgCs1Vg5FbKRVddmksVpyKXcCcQlTQ9+JfbZCZpDg9Ic+8yaRzHNofRQ5NloKSfpsdmHrfNDk36AdLMFsJ/mGsjg+dY522aifpPGDo0J2InaBbBvd2gaQj/Pl9EHx7NIktfpTyIrI1xQCPuSbOKphH4iZGkNducQUHQhOdklp63ZBz+xBj7FvefsJcENC95OErgNyAfGs3oIhf/jnnmPV3E8ewCHudcBIYDOboAN+TNUxnbBfvEvsgMCnsB6WLhR/Czjdhe8zZjuUhlhjSN4wUcbgJIR/fA94cglc1G+maj/XHktfqVWcc+HtlEoVAoFAqFQqFQKBQKhUKhUCgUCoVCoVAoFAqFQqFQKBQKhUKhUCgUCvXw9X/3ASmeMEsqhQAAAABJRU5ErkJggg==;" parent="1" vertex="1">
                    <mxGeometry x="634.33" y="61.5" width="176.42" height="80" as="geometry"/>
                </mxCell>
                <mxCell id="11" value="elements" style="shape=image;verticalLabelPosition=bottom;labelBackgroundColor=#ffffff;verticalAlign=top;aspect=fixed;imageAspect=0;image=data:image/png,iVBORw0KGgoAAAANSUhEUgAAAUYAAACbCAMAAAAp3sKHAAAAe1BMVEX///9ncuVeauRibuRfa+Rkb+VcaOTp6/vO0fbw8v3EyPSHj+ra3PimrO/j5fqyt/G2u/KPl+udpO3T1vfe4PmiqO7y8/34+f69wfPMz/Waoe18hehpdOV1f+fg4vmEjOmssfCUm+x4guhweubGyvRVYuORmOu7v/NQXuIyX5oSAAAJp0lEQVR4nO2d6ZqiOBRAJRsKQuGKChYuVDvv/4TDpsJNEMQgVvc93/xpCiQ5QHJvEpjRCEEQBEEQBEEQBEEQBEEQBEEQBEEQBEEQpCcmU2+2GLoQv5vl5rjnhInx0AX5rfhm7AREMMoNwyCosQvjQxQSkhnMQI1dmAh2M4gaOzOhhoEaXwY1agE1lvFd69gp4EONV8zxwQ4F6RbwocYEf3qZhZSw7gHfP69xYq2ymPm1+v/zGlc/tBLxEWwbu+AAAVo0cvqz1V3Qz0a3Rk4ZEee5tdZd0M9Gp0ZOCdnPvOk/pjBFk0ZGmRCBszV93QX8HWjSuD9uvnUX7TehR+M/D9QopkOX6FeCGrWwQo1tmCw3zm4WBadTYO8cb+yCrlTS2L6ncBfxZjuddCqWGR9mWZG8aeu+fT3dOEc7COzj6rLodtpumF5kJPky5TmUMULC6KtccqiRB/adyMr2iewyQXb0+nAmhCShNj2k/5oB7PymNsGhZrbV3wTpQEheJBIely2q4lvp+BPLqkKT6IpHmzfFVuMAzpDkopggx+01RIYaDV6CfGX7iPI2LtK+3Lr9NJuPsrixisiTQZNVD41TIQdGKsWiImhqScwVOCYpJxFzsydzJdxAKBzeSs7zG03WWIblGom0cSXuP5VprBmaMKvbqTMaLUImnYeL2aNby3eYfExakuxJ6BPf+amXmNXTy3d8XiO3R193i09p5PvkAijLRXn9DbnkSonZac693pDrPak789VQZ41G6JY3PKMxuQR15eJkU1MXDz7OlcMe6H8Z03h8KxqvaQzL/3pK46NyCUdZl1L7oT6st5FNP2y0+IrGKs9pfIRQ3Y+7pseqv0g3alH4D9RoCDmfdxruxRTeT/t4abyAxmdqNCgcqbRaWDT4uQ+Lfm2/VuYzNUbVqphtboikmOpW9TWc36vRyOLzO/vmNj4/W5s86EnC5tMan6rRoOWatGqdUji4izUwbvkgfKbG4owZE8W9mCTxSWYtbVZ0Ti+i8JJk0QmEsNKU9KAa00ESqn5gw3tWuJJ0EcMbTyYLL4Ql0n87yu0Jiy5L010uYm8XhdchhVqNvDzA8Fgj5zT572mNxLDnB88JlIkysa4VWcNemtNbYOnBQ4nmmSBfqjMrN9u+650yk3UayXg9uVHM8yk1UiLOs1l0/tk9p5EamyKsMR1Ffn2/rw5AFeclVQvgmK70ajThNZRPMLkEhF41zluMfis0cja77pgGv+01kmNpLOdbkW79FMG0fwZ/Y5UbLgaF4i+bq+BCjcqpvuXuv5c0sn01xGitEVxUU9Z4vb5TUJFy55NiVw/VnBIuJY3q1N0t7HbSyI5gj9YaBUjcFtJvX59qWDADjEiCimp+qr+lh3r2cP8uGrkN92iv0YXnl/uZvOmE1ZAylWp8zPdtDbVCahulpwFUo4NGEsM9umuUU9e8BLAeRCoX6By51kkuX07mSQTLXqKTRgvu0V2j1CEXjeMGbpYsgU5GcwSuyEM5+1N7jsE1mtAXTSOo0Q4cKY/igD6IXZ6x1IjUNGdFE2SlTt8H1zgK4JTfSbFV0fRNQB8zf85TAzAwvZvcO4rxzeE1Sk91OEoH8OHGgwMAJdedD8Kw9X4iJk4bODD6bo1y0ibFPMJXxe1UAtROb1f9cMSYE+pURQ6vcQLLm8aWUhbRAk3+rjyeimGkInJ4jSNJ47T1cF/lMM2LUSb88aAxM0qvCXyARtgMpunrtoNG3aujlg+WneRnvKcEH6ARdtVkK488tADmma+zNBpGncmtW/sAjTbUmCRJVgeN+hefr6OGJppd0+K/SGMP81qjWLFwq1LWIlp9t0ZFXSNND3Uvr0L4K+XqxvtZ8/zwAzTCQDftYrr01A9GDl7B/9qL+jayCFc/QKMU8CzlQdsW6O9iboxn9bckycIeOATwfo26wm/tAU8Z/3JSzOum5IOvw2uUnt8sGZQuPpezwSo/Pa8Fdw+hcqVlFvYPrxG+mZMPTZyhxanZhG5vMtZZcUdmVR1eIxwgzYdqpJi8j3DmeTy5sclmF96tUfp5F/56PnB4BEdqHpXtzFR6rmk6vwc1ynMePWuEBSiEwUkEeRptIKTEIHt6JI3SdFW/GuUpuPzxlWY4e4xnVFycuh5L0pjOb0CN8kRmvxptKbIN1Ste6J8XpDyP98MO6q8UnGBbrtKoWgGsUSNcw+HJ0/3F0wsbR+Vz0h8eMxjfqfo12Flnc0dS06R4P0WjRn6uBMmxouMrzr+VJ9xrpzd9T/uy5WzNGhXGAWbq0mI2nq6nkNc3yot+NGpMoujSTaUIH27JiDSplfxJvXDBXQmx6yarnqstJvbzcalZ/pIix2zluTQvlw7+5En+ZLzLowydGhMZp4u7Tr/hulG9Snaf4FMsYCV7OCVnxvN04EDz7OqofNOl33Mxorl32XgHW7EmM0uqVQN7lIS2fU4/qKNeJvqaRoMzwhKIMtsntwkOKdfODw0ca/r9/e1Ox5vDzCg+BNunxsJlWmRliUV6ZaUVaMVh2XxOzaLlFzU+otzDSZ1MUSEixHUR9nVj7xoflDjvEh8NpbxfIyklK08cPKDGIoCAQ/hlBrgbK1VpPXY7nMbr4yMHFnferlFUvxAXtD18OI23EtcuVnm/RrikVfrZ2gOH0khvqf6Dd6HerZHBPLZuXZdUm4E08v29xDBJLFXrvRoVo0uKNEfFQBo5LeVk0kLNG+/VKFSfzoybVoBkDKOR7SuZbe2j81aNQvrVDLdpBUhKDxqbowTpcy11l7wHjXUTlZTVfTNiMmu8Ibn+nHqsnr8qVcSQL/tUfcn1a2RWoLzMJHowPbo9P6wSJ6c+xtC2tiB1DwInTDmsO7FVl1wcsj/qndL6YnAjJ7Tu6zEFl7Bu4QInwu7r2yfr+BgyAl+1TbJRGll1Y+PTqDpWkO5dfL3qh1X5kTUKAnYpPq6lGv2eHGnpMifnOV+ap5gXf0I4lpF+4IzbPX+M2LXS136TBD5HCCOaxw8XFrhOcNtfsMBZXAvoQqSS+9+QfJeaSYS1NTPyUwlymrd8ocVffs1uFRJCnKPdZfmWz7356+k4tiwr3i7cdZsz+t/Z/tuFpk/91s9T++Z0EccL+B3EpvL57mIbW/E4KeA/9DHiVkuhkCZQoxZQoxZQoxZarf1GmkCNWkCNWkCNWkCNWmjzPjXSCGrUAmrUAmrUAmrUQlkjp0z8hO9dwf2XcNXIGaHn2RP/UxOkTKIxXUjH7cMYb8PumMI4rWI0+CL+eyZLEARBEARBEARBEARBEARBEARBEARBEAT5q/kfHQabIX3SO70AAAAASUVORK5CYII=;fontColor=#66B2FF;" parent="1" vertex="1">
                    <mxGeometry x="804.33" y="198.25" width="126.19" height="60" as="geometry"/>
                </mxCell>
                <mxCell id="12" value="payments" style="shape=image;verticalLabelPosition=bottom;labelBackgroundColor=#ffffff;verticalAlign=top;aspect=fixed;imageAspect=0;image=data:image/png,iVBORw0KGgoAAAANSUhEUgAAAUYAAACbCAMAAAAp3sKHAAAAe1BMVEX///9ncuVeauRibuRfa+Rkb+VcaOTp6/vO0fbw8v3EyPSHj+ra3PimrO/j5fqyt/G2u/KPl+udpO3T1vfe4PmiqO7y8/34+f69wfPMz/Waoe18hehpdOV1f+fg4vmEjOmssfCUm+x4guhweubGyvRVYuORmOu7v/NQXuIyX5oSAAAJp0lEQVR4nO2d6ZqiOBRAJRsKQuGKChYuVDvv/4TDpsJNEMQgVvc93/xpCiQ5QHJvEpjRCEEQBEEQBEEQBEEQBEEQBEEQBEEQBEEQpCcmU2+2GLoQv5vl5rjnhInx0AX5rfhm7AREMMoNwyCosQvjQxQSkhnMQI1dmAh2M4gaOzOhhoEaXwY1agE1lvFd69gp4EONV8zxwQ4F6RbwocYEf3qZhZSw7gHfP69xYq2ymPm1+v/zGlc/tBLxEWwbu+AAAVo0cvqz1V3Qz0a3Rk4ZEee5tdZd0M9Gp0ZOCdnPvOk/pjBFk0ZGmRCBszV93QX8HWjSuD9uvnUX7TehR+M/D9QopkOX6FeCGrWwQo1tmCw3zm4WBadTYO8cb+yCrlTS2L6ncBfxZjuddCqWGR9mWZG8aeu+fT3dOEc7COzj6rLodtpumF5kJPky5TmUMULC6KtccqiRB/adyMr2iewyQXb0+nAmhCShNj2k/5oB7PymNsGhZrbV3wTpQEheJBIely2q4lvp+BPLqkKT6IpHmzfFVuMAzpDkopggx+01RIYaDV6CfGX7iPI2LtK+3Lr9NJuPsrixisiTQZNVD41TIQdGKsWiImhqScwVOCYpJxFzsydzJdxAKBzeSs7zG03WWIblGom0cSXuP5VprBmaMKvbqTMaLUImnYeL2aNby3eYfExakuxJ6BPf+amXmNXTy3d8XiO3R193i09p5PvkAijLRXn9DbnkSonZac693pDrPak789VQZ41G6JY3PKMxuQR15eJkU1MXDz7OlcMe6H8Z03h8KxqvaQzL/3pK46NyCUdZl1L7oT6st5FNP2y0+IrGKs9pfIRQ3Y+7pseqv0g3alH4D9RoCDmfdxruxRTeT/t4abyAxmdqNCgcqbRaWDT4uQ+Lfm2/VuYzNUbVqphtboikmOpW9TWc36vRyOLzO/vmNj4/W5s86EnC5tMan6rRoOWatGqdUji4izUwbvkgfKbG4owZE8W9mCTxSWYtbVZ0Ti+i8JJk0QmEsNKU9KAa00ESqn5gw3tWuJJ0EcMbTyYLL4Ql0n87yu0Jiy5L010uYm8XhdchhVqNvDzA8Fgj5zT572mNxLDnB88JlIkysa4VWcNemtNbYOnBQ4nmmSBfqjMrN9u+650yk3UayXg9uVHM8yk1UiLOs1l0/tk9p5EamyKsMR1Ffn2/rw5AFeclVQvgmK70ajThNZRPMLkEhF41zluMfis0cja77pgGv+01kmNpLOdbkW79FMG0fwZ/Y5UbLgaF4i+bq+BCjcqpvuXuv5c0sn01xGitEVxUU9Z4vb5TUJFy55NiVw/VnBIuJY3q1N0t7HbSyI5gj9YaBUjcFtJvX59qWDADjEiCimp+qr+lh3r2cP8uGrkN92iv0YXnl/uZvOmE1ZAylWp8zPdtDbVCahulpwFUo4NGEsM9umuUU9e8BLAeRCoX6By51kkuX07mSQTLXqKTRgvu0V2j1CEXjeMGbpYsgU5GcwSuyEM5+1N7jsE1mtAXTSOo0Q4cKY/igD6IXZ6x1IjUNGdFE2SlTt8H1zgK4JTfSbFV0fRNQB8zf85TAzAwvZvcO4rxzeE1Sk91OEoH8OHGgwMAJdedD8Kw9X4iJk4bODD6bo1y0ibFPMJXxe1UAtROb1f9cMSYE+pURQ6vcQLLm8aWUhbRAk3+rjyeimGkInJ4jSNJ47T1cF/lMM2LUSb88aAxM0qvCXyARtgMpunrtoNG3aujlg+WneRnvKcEH6ARdtVkK488tADmma+zNBpGncmtW/sAjTbUmCRJVgeN+hefr6OGJppd0+K/SGMP81qjWLFwq1LWIlp9t0ZFXSNND3Uvr0L4K+XqxvtZ8/zwAzTCQDftYrr01A9GDl7B/9qL+jayCFc/QKMU8CzlQdsW6O9iboxn9bckycIeOATwfo26wm/tAU8Z/3JSzOum5IOvw2uUnt8sGZQuPpezwSo/Pa8Fdw+hcqVlFvYPrxG+mZMPTZyhxanZhG5vMtZZcUdmVR1eIxwgzYdqpJi8j3DmeTy5sclmF96tUfp5F/56PnB4BEdqHpXtzFR6rmk6vwc1ynMePWuEBSiEwUkEeRptIKTEIHt6JI3SdFW/GuUpuPzxlWY4e4xnVFycuh5L0pjOb0CN8kRmvxptKbIN1Ste6J8XpDyP98MO6q8UnGBbrtKoWgGsUSNcw+HJ0/3F0wsbR+Vz0h8eMxjfqfo12Flnc0dS06R4P0WjRn6uBMmxouMrzr+VJ9xrpzd9T/uy5WzNGhXGAWbq0mI2nq6nkNc3yot+NGpMoujSTaUIH27JiDSplfxJvXDBXQmx6yarnqstJvbzcalZ/pIix2zluTQvlw7+5En+ZLzLowydGhMZp4u7Tr/hulG9Snaf4FMsYCV7OCVnxvN04EDz7OqofNOl33Mxorl32XgHW7EmM0uqVQN7lIS2fU4/qKNeJvqaRoMzwhKIMtsntwkOKdfODw0ca/r9/e1Ox5vDzCg+BNunxsJlWmRliUV6ZaUVaMVh2XxOzaLlFzU+otzDSZ1MUSEixHUR9nVj7xoflDjvEh8NpbxfIyklK08cPKDGIoCAQ/hlBrgbK1VpPXY7nMbr4yMHFnferlFUvxAXtD18OI23EtcuVnm/RrikVfrZ2gOH0khvqf6Dd6HerZHBPLZuXZdUm4E08v29xDBJLFXrvRoVo0uKNEfFQBo5LeVk0kLNG+/VKFSfzoybVoBkDKOR7SuZbe2j81aNQvrVDLdpBUhKDxqbowTpcy11l7wHjXUTlZTVfTNiMmu8Ibn+nHqsnr8qVcSQL/tUfcn1a2RWoLzMJHowPbo9P6wSJ6c+xtC2tiB1DwInTDmsO7FVl1wcsj/qndL6YnAjJ7Tu6zEFl7Bu4QInwu7r2yfr+BgyAl+1TbJRGll1Y+PTqDpWkO5dfL3qh1X5kTUKAnYpPq6lGv2eHGnpMifnOV+ap5gXf0I4lpF+4IzbPX+M2LXS136TBD5HCCOaxw8XFrhOcNtfsMBZXAvoQqSS+9+QfJeaSYS1NTPyUwlymrd8ocVffs1uFRJCnKPdZfmWz7356+k4tiwr3i7cdZsz+t/Z/tuFpk/91s9T++Z0EccL+B3EpvL57mIbW/E4KeA/9DHiVkuhkCZQoxZQoxZQoxZarf1GmkCNWkCNWkCNWkCNWmjzPjXSCGrUAmrUAmrUAmrUQlkjp0z8hO9dwf2XcNXIGaHn2RP/UxOkTKIxXUjH7cMYb8PumMI4rWI0+CL+eyZLEARBEARBEARBEARBEARBEARBEARBEAT5q/kfHQabIX3SO70AAAAASUVORK5CYII=;fontColor=#66B2FF;" parent="1" vertex="1">
                    <mxGeometry x="804.33" y="306.5" width="126.19" height="60" as="geometry"/>
                </mxCell>
                <mxCell id="27" style="edgeStyle=none;html=1;exitX=1;exitY=0.5;exitDx=0;exitDy=0;fontColor=#66B2FF;endArrow=blockThin;endFill=1;strokeColor=#66B2FF;entryX=0;entryY=0.5;entryDx=0;entryDy=0;" parent="1" source="13" target="32" edge="1">
                    <mxGeometry relative="1" as="geometry">
                        <mxPoint x="190" y="225" as="targetPoint"/>
                    </mxGeometry>
                </mxCell>
                <mxCell id="13" value="" style="shape=image;verticalLabelPosition=bottom;labelBackgroundColor=#ffffff;verticalAlign=top;aspect=fixed;imageAspect=0;image=data:image/png,iVBORw0KGgoAAAANSUhEUgAAAOEAAADhCAMAAAAJbSJIAAAAkFBMVEX///8bHyMAAAAYHCAQFRoGDhQAAAkWGh8UGR0ACBAAAAUOFBn6+voSFxsAChEIDxXIycn19fXQ0NGOj5BKTE60tbaWl5ju7u5ZW10hJSmgoaK/wMCFhocrLjHd3d1sbW91dnifoKE4Oj3W19fn5+dkZmdcXmA/QUS4uLlyc3VSVFapqqswMzZ9fn+IiYqRkpP9TG1vAAANC0lEQVR4nO1d6ZqiOhCViiCIihtuiNouraNj+/5vdwFtFU1IJRCC95vzd5puzpDUelKp1ZSjt+j6s8F5ORmuw6lhGNNwPZwsz4OZ312M1f95pVgEo+UaIliO6dZtQowrCLHrrulY8T+tl6NgoftFZbD15/vo/R3XNrJhu070c/u5/0k0F6edBU2Txy3F02xCc3f6BJat4OyC5RI+qTcQ1wJvFbR0U8hCz58AeDLs7iw9gInf002EgcMEmvUc7H5Rb8LkoJvMO/orgCLo3UgCrPq6KT2jdQrBK4zeFR6Ep6psye0ZrEbB/GIQC85b3eQibL7BVEDvChO+N5r59YfgKuMXw4Whzg25GRZoXViow1DXd9xOoK2cX4w2THTsx95K8fp8Rh1WpUcBM4X2hQYTvkrl1w+hVH4xICzP5LT+gAr/x0MD/pQUAgRWuQv0AdMKSuDX2kGe5CEfCOyUf8auU3QAKgbP6aolONf4Aa8gMFfIb7y2NPOLYa2VVei6JcUwPLRBkcEZaF+hvyAwUEFwUr6TZwMmhfMbh7qcIB1mWPBmXFRkCz7QhkKLq93KbMEHCBToGf0qbcEH4FQUwa9qEowoFpRRXapKMKJ4KYLgT3UJRhR/8hMcVJlgERQrvESvyLtQK2tkHshnbirqJtIAX55g9xMIRhSlXf/iMwhGFCUDuHEFQzU6CMiF4WHVgm022qEMwUm10qVsmBL5YsU9/SvEs/7gswiKG9TPsTK/ELU262wr044Vac2OlDBIAm0zkcBllzLbaxGCc84vOwb9fte/7BywVDeBGx2A4c+p29/0T9k7xxIoFfNimcea356+oanOq5AOhJdHU+2Y/d+J34otJ3v1ESf10/5QUbe0DeYlFa0csv/niYNt2+w4zRfzdTlsf8AqfEu6MHwtbbc4a8vb4QhyHQVQmrEzt1jr68KOEmx+c3Y9rtzf4n4OoD538pqFcazDkqq+OHE6Q8TCrNM/vE3lstbCDJxC+NlwZCQLW97yMv/wCfa5wYw1Yz3bmjMURI2617ESn3ZDM1Z+t+nfHEK2TeR6YNoOekHIFSFAhkRpe0xvR9uLeTXX36vB1+kQdPv9zSZypYF/Gs2XxyklbvAy67xLnobH5mYZiMIMZK71wOzc/pbZBNivZsEiQ+wz7kdxgwF33TSBXaY0aMZt0QJzhV3R4xNsTLN/Re0MxO7E8vsDNvXu9WdLF5oe6Xgcp42oq0C2emrF991MQ3NHv76+dIU1E1t/BVw7wTU1kbFZ5fwFhllAmVkeiBeELJnfBBFHs01pGUDETm5Gvr/BpL1NrTr6NeKcSoaxH2KyBFVCCByOiFdsD1lP8519wlCxKCkbvMj0+oost4/6hJioQSF2GNlunfERUbvwI74hayd+41TN1d+HkTn9pj2L8YUxmjlaPfmBsaUGwyeekaUIvf4Q+RnM8/ujvArB42GV6kce0G9JSQ946fMd9eIlZXigG37Wew4WYksQxNPA7BfoZkPjLU/EefsEks26QnDpoN/y1W2v8PJtne4CF5TE8FYvjwq0mjSaGrShMd4qgpxqcgqE6KFXE+v5QToHwiSGj2e1nXrkFqKekLb5iPIM+3+nRKxFjsulCjZ+U+RJJTJyFFpE4MBVKrwUWaQmNaotCdjgOcbzMhUxUdxiolqImMSnyE3IRGmezrHC90aeHLeIux9pZJfAQHe4vEeCgR/WYQvJAZQAH18S9/cZAYWe7jUa4w96xd3fFp04GR6iPacceOd9T6FQ9avrf0olJleNsF/k3mJBd6c7OtP7J2AlA8S6/jzei1bjE0YfEesxbgUpdMhWiV0YA70Tb4HbHKv30ZdTvAJrTm+p7B45dsz+q5nXA1ifaO+TH0eXr7QWStNoIG1Nkuij/X1mb7Vk/CArUonPx0brjeosUvwyTYJvrOnt6Et8KUAydOJEAVv70NtVewUyZ3eXNXQ3h6dTKRlfuJWX5ELI70305vavwB7JAnx8kHzv6mCMZdhDOwtHe3KfBpbhAv259bZ+34FtBndrPjLZ0ivBeAcyqbX82gzpDqtQv3jGGRd8O7PaAJlZVCU3/MUAF7eZg9oZ6/Ar5Q7RDtE915bIgn62Mrh88NXCCerL2gQb0uim9AIkQ3tSG2Izrc/8ho1hbf3/ZkjWtRBH8FMtjRHWpliGFfMWWN3JtIYkWKkaRowfbIUQz/AzY5qIIXqVfmZcGq1SNEOtwtl3YNVRU7QtpYj9tGKK9HIh2h9+aAYc+cMhUqHypoTTC2zxJYppsHEp+5iGFiAPFsRx6RK5Y0lHN6kUsAKZKLfA5ocVC9uwlfooP8Tm+BXqHsbAVuqjHB9bp6mYu5giDaQzQ9fanhVG+oHuc1s+fmIZkZrFpAjot4augCCqSqYGr8ZYCCiMqhSZojX78WdBM6SdJdIEvCA2LqBh+4cGaesmdgdaEJv0D/H69+p4RLQ8MekJojdthTr56EWaZER45TRp6GZ2A161nVhHEf1sRcQK+KMF1+oSniF/JEYpwHa4jd9eBFbXZlSlaIpsrBl3XRv2ALCh+YTsLwROh9zeV+RIUBUiN7QI+j7DQ2SYbgU+otAZxFuhXmQKmf7i/hy9Cx/DAfFafcOoH7XSEzvbdVc54c9bGPozjL3AHMp7WUJoqjVpam2VzkTe9dFNErqkOGtIkXKIrFGD2PfnBM6uGXqPr01FLvt+qiwJjkXWF56KTeB+MhkiLiZ5VFO39Cz4JZ4shtBhdcNoWFq8ouBdG/XnA8tCZ7kj2I4GiiPBlZbSi4qdx48plr9Q56LvmI6hBZdpwfdJYbATJVhPn6qXuIykVKcxXguPt32Z/CBqTZNfcSwtlQokrn17lRrijw8/4JY0IKO1lJgz/daVF5gx9ACBYwk21QeZy13fi7tY9UYadZgrXqrdtdSg8Pc5UawUynYsgKbDNrUdGCjk2B1KXh9N6efSbQ0ML34Q+KMdMOZYJxzPipyjv5a+WJImh6WV3J6cXnAEZlzvwd4vPGtczEH++m9qPYmSepHUFIzNmm2N7CbsDgWu1sUozHXhAr2cRJl9+VIB/sra9C7A8KuI7tT4sPKAcwEFB4ziPEVm9DrqdNHJ3BdtB+B4CeQL463NaTUFEKo50MDqA1Jax85LyaIX8upy9Q5ENOen7lZoZ443h9EyBLA86b339A6sgiDN65t/0yu6FWJi9OvVN3gl3CEesO8UdjEPW+1L6//bLxF2r4EslbgiUr9CryHMqOnSQzfLSLk7ZLmrYQut0oFgDp6FrG48PU1spHNBXN1KtOkvUunNBn2I8A2s2nCaIuc2qAQdUWmKUCU0E9mtFdbdCOmiBSJKFz9EhB6xwgFH9sMq2JDO8xvzUy0JVbhwrYgBXouTdUeJm7JP3LFwMp1Usco78y9zJ7Cw7plJP8mprksd3sdKtzPBv2eGvQJTG5hjF+RacFhVbOZfRhztYd331N4//1S2y5A7cIrXWDCRfQXLDS1W0zt9s3BWFCI58jv/9cO4O7uYn4ekPcCBnUpJnq+RKWmmgd0drLvznPQdOhtmDUy2Ho6ems4A9u489t1yLwlx75te2LBlBRsig5ApwN9/yNwQb1XWbvhWoGo4sJYdEjLKZ2pElg4r8nzXtQUTAPN2RRyJs9/wIl94Q5+MoELkHlLmXbIORUPbO8yH12vxyOTnkEval+sSYrG7ZFn3AbOPd/XGBVTapFoLv68mqptkbEW1vZg819WLh1H0e7nVzk7MwVBmjDpd2QEqhynJM5S5Wz3yvzRrQ1QqTKUZtuXOZNGtjVAJTRCyDIWtTPYfbKo7HCTLUF4YQjeooOyKR0mGeQSh9BQJVoVxSkOOYebls1zQyzbWXk37XophXtULXUvWViOmkWGY/z4Ruuc3LG9WvFZYgiEUcHiAQZFY8Kdo4Zc4wyIIZogevaQf+nxlc2vbP4yWU9klLMywKLOeoR5vx/1QmO6Hx+NwP4VrG5BflC2IYXHWgNfdI412hPuMbenB34I14XxuIo2ukO7D+iqDISn25MfCEhCgOmUwtIs+ldz7i68SlcHQmxZ/FPIbf7xYPUM4qji5M8KKBKUZous0xbjBd3TZ6r00Q1kjjmRoqztdNt6jFBOKGTqhStnuALNSlTIkynK335dw+YIClQzdEs4/8mXlnYvkr+Y3EGFSxvmAbofjGpUx9JTWMp9xzg7ipCeEZDNswK68s/Kbv1lLVQ1Dq1HuOaQTsJeqKZu1ZTB0QXbpS6M1B1bHVnosAZNhG3Y6JnJsd4wYp2iGNgx1TTdaTKgci2Vow1rnWJzNhLJWpYeCUXrAbVjrHqK2WL7ZnE5hlsaDYRXGGo1/oJnyj9J+OT08iDiwrMyIbX/9dMKFyI/gPz6WvAvuqALDcB7YnOG2Ixs5YuPtzXLZFuyqsDxfEOwSzUmY59W2e4AmwP5Uqc/3QKsbBHl3zvbgB9qn/PzDP/zDP4jhPwUI38oQl599AAAAAElFTkSuQmCC;" parent="1" vertex="1">
                    <mxGeometry x="60" y="198.25" width="60" height="60" as="geometry"/>
                </mxCell>
                <mxCell id="16" value="SDK" style="endArrow=classic;startArrow=classic;html=1;fontColor=#66B2FF;strokeColor=#66B2FF;entryX=0;entryY=0.5;entryDx=0;entryDy=0;labelBackgroundColor=#FFFFFF;" parent="1" target="10" edge="1">
                    <mxGeometry width="50" height="50" relative="1" as="geometry">
                        <mxPoint x="534.33" y="101.5" as="sourcePoint"/>
                        <mxPoint x="684.33" y="251.5" as="targetPoint"/>
                    </mxGeometry>
                </mxCell>
                <mxCell id="17" value="SDK" style="endArrow=classic;startArrow=classic;html=1;fontColor=#66B2FF;strokeColor=#66B2FF;exitX=1;exitY=0.5;exitDx=0;exitDy=0;entryX=0;entryY=0.5;entryDx=0;entryDy=0;labelBackgroundColor=#FFFFFF;" parent="1" target="9" edge="1">
                    <mxGeometry width="50" height="50" relative="1" as="geometry">
                        <mxPoint x="530.0000000000001" y="226.5" as="sourcePoint"/>
                        <mxPoint x="598.33" y="226.5" as="targetPoint"/>
                    </mxGeometry>
                </mxCell>
                <mxCell id="18" value="SDK" style="endArrow=classic;startArrow=classic;html=1;fontColor=#66B2FF;strokeColor=#66B2FF;entryX=0;entryY=0.5;entryDx=0;entryDy=0;labelBackgroundColor=#FFFFFF;" parent="1" target="8" edge="1">
                    <mxGeometry width="50" height="50" relative="1" as="geometry">
                        <mxPoint x="530.33" y="336.5" as="sourcePoint"/>
                        <mxPoint x="608.33" y="236.5" as="targetPoint"/>
                    </mxGeometry>
                </mxCell>
                <mxCell id="20" value="1. Authenticate" style="text;html=1;resizable=0;autosize=1;align=center;verticalAlign=middle;points=[];fillColor=none;strokeColor=none;rounded=0;fontColor=#66B2FF;" parent="1" vertex="1">
                    <mxGeometry x="539.33" y="111.5" width="90" height="20" as="geometry"/>
                </mxCell>
                <mxCell id="21" value="2. render items" style="text;html=1;resizable=0;autosize=1;align=center;verticalAlign=middle;points=[];fillColor=none;strokeColor=none;rounded=0;fontColor=#66B2FF;" parent="1" vertex="1">
                    <mxGeometry x="534.33" y="236.5" width="100" height="20" as="geometry"/>
                </mxCell>
                <mxCell id="22" value="3. payment" style="text;html=1;resizable=0;autosize=1;align=center;verticalAlign=middle;points=[];fillColor=none;strokeColor=none;rounded=0;fontColor=#66B2FF;" parent="1" vertex="1">
                    <mxGeometry x="549.33" y="346.5" width="70" height="20" as="geometry"/>
                </mxCell>
                <mxCell id="23" value="HTTP(s) req/res" style="endArrow=classic;startArrow=classic;html=1;fontColor=#66B2FF;strokeColor=#66B2FF;entryX=0.5;entryY=1;entryDx=0;entryDy=0;exitX=0.5;exitY=0;exitDx=0;exitDy=0;labelBackgroundColor=#FFFFFF;" parent="1" source="6" target="32" edge="1">
                    <mxGeometry width="50" height="50" relative="1" as="geometry">
                        <mxPoint x="370" y="164" as="sourcePoint"/>
                        <mxPoint x="277.83500000000004" y="346.5" as="targetPoint"/>
                    </mxGeometry>
                </mxCell>
                <mxCell id="26" style="edgeStyle=none;html=1;entryX=0.5;entryY=0;entryDx=0;entryDy=0;fontColor=#3333FF;endArrow=blockThin;endFill=1;strokeColor=#66B2FF;" parent="1" source="25" target="13" edge="1">
                    <mxGeometry relative="1" as="geometry"/>
                </mxCell>
                <mxCell id="25" value="developer" style="shape=image;verticalLabelPosition=bottom;labelBackgroundColor=#ffffff;verticalAlign=top;aspect=fixed;imageAspect=0;image=data:image/png,iVBORw0KGgoAAAANSUhEUgAAAOEAAADhCAMAAAAJbSJIAAAAkFBMVEX///8jLz4dKjoADyfn6OlHT1oAEikAACEJHTAeKzsgLTwQITMAGC0WJTYACiUAFCqtsLTe3+CUmJ0AAB8zPUpWXGb4+PkABiPAwsVdY2yHi5Hs7e4TIzQEGy/Q0tTGyMuBhoydoKU7RFB3fIOnqq5nbXVMVF63ub0qNURiaHHOz9JBSVWOkph7gIYAABuYm6BaNtt2AAAL8UlEQVR4nO1d6XqyPBCVRbawiLWgZXHf+tqv9393n61MEhAUJDHQx/OzTw0ZSGbL5Mxg8MILL7zwQt8QnCF6DlwQpPvT9t1MFMV1FQ2tZuvl1Bc9KWZQ92sp9AzkyJaUwZQdZCvu++lT9OTaIz1JruFg0fKQY0+fjfq8atWxrKEK6bCUhj6bip7og5i/6/fEy4T04u8efsj9RJPriPcLC4WLSPSMm2E68cza8v0i1j969B39ndJQvh8gbyN64nXxoV+tT0tGhq2dbaHyaxG9BJXoV8te9cJGpgdUmLmTKMbsNJr70Y8/EwSRmu6X64luo+KXNvWT6Onfx/gt/3FiT1vv1bL/DD7Hq9AofG5jVfq/3UGws+n5yra3SG/9f7QZunFORFnvtHX0ZYeerDLc1/jNQsmbzS6v1LlOTVV2Zzc/H0GwtA1aRHvLd5qPY/9G6UVvWFO+X4xd+uOjIbc5tsJGp/QLqrE+aQRbl/r+8T8+U2wHSkDLXTf//VymVI7TQRH3REDZnj80xFbpsoifZA+if4860SNKU6EZ0/m1hkp2kffACgX4HnEAkgWz2bGAhP2v8LvNOJFEdKo7YjU7Bpjheekt44NgRUTUu+OHLz08qfbvnYhoSgzmxgQ+VqMugwgvOOC9iFpsaaZYwZQ8Jh5l5JBN/ZjZYY1lAp4II3+SrAlLZjNiO0QuGPoJqyH3MKSEPliN2QJb0Awuu2zZGqcJdPEBcRpmc9FYmq8DOBCOeNdml6kZ553lqGQrhk2CMB74hC0Tss3oLmCdykzf3AOAT5gsGQ9swDoNxXo2frYLLZP1yCNIaTlicxrrTJHaDUP6GsDOvC7yRCPIFIJ1YD/2Hj4iahWttMQoy5El7D/hYGBlH1GoAz686BkL8Rh8AylGTZzBUDM9E3PJ4QaQtokXPIavBXjLIR/XCtSYFXMZvg7eL4tU5pTA/YTAWhFlEoPMnzF4nWwmmdVHrN2JuvjM9LnLy/+HZSrMcxtffEeTgzG8YAqxtcfrCXeQbUN+qg4H15qgjZgd+3Ex9xccMqNv8HvELagud00HGzEWk8wARZPwe8QmixJlMZF+5pSaHE+J4CVaYlzT0+W8z+GYtvXBcXP5PeMGvi6bBHEsLACfgmUerwGOMl+P5gdQdCvGXGShE1dNPsnMhSckgJpc3u+DR9r1sMok5PqQSmTvl+vDs3Ui2UIKpTKHw+ZZjb4TKuHf/4bP2IfZMwTtw+HlGxo8CwoOQnVpZg8RT3uIhNrDZ/o0ihCf5nRx/HmeK/iaUL80iy0sZofb15hDbCHmPB+SfRq/RywhPhSTilIV7lpgKzbGh0PMhJ+5gEsZXC3SDWQuFb8QWMW5NkFnM1m+lN+xwgifPvF6wh2ApuOWbINtKO84PeAewB5zO6SFLI24U2A4IOVkEadwzi3uiHRpcF2mRzg/NLgMXwd+tkydBY/RI6iLcr54DF8PkChSeFz/HENZlCfwTjsccxs8jjChKkpokSksJB47BZdi8AzP7gMsVsI+DMZX9sSWmKZgsph7HaCnJefIeuhmgJQta+8fF9NIruAC0ylE4Yyvf+DaamEeGwYYDJnpMeLc7conPM8FllMyZjgqvq0v6PQ3B0i8Szq7t30k96g6cPfJh5uHVszKsyH3qNCC0ZCt8AHelcOovo3c1rQcNiO2hQn1ygaT1Kmq4duaHbn3NEjx5QibgVWMCP9AZ+6uDT6g/kzSWvuQgYQv53Xn/uFg8A/PSmv5FSOZ3ATugh4FRAmTi85nxWwQQhdXTDFbBVJyWd3YPW40piERkMWeZgmKcMAxH11dp1AiL0pwSHGNb0KIYOkPhfzRMCECItEXukrwoZH52cPmUesmpOiGkPCIogwfFK2FHDb0w/1/NDlRNwU8L1SXmqQhN1CF0TpHD5Z0IKAox56mCrLsQ80zMXWt0/w7ktMxLYrhnw55mi8rQd/3KwzmszAn389NuNv0WWIQLCfKNQ+khcL3m+yd/kn2rukVrViTarybZyLdhkYFj6BsuMNlWialuv9yKsk/TRTOOhJYDH5oLhWnfJ6ZkMhzV+vlNFV/OYSDyJ+PTjOkJFXMrdnPPKkbRIpLZNeggTQdw/YU95c20dXsBMk1qE1NQzuJJsQMvhWjZKq1iFlr/Qq9LYTKuPSM60k5iWKWqI97MG1ZsUvWrUhi0xG6ks9ybG+7jwaf70UTcAeOstoPgumiTPcgTcztvM+JXZyL4yVrUID+WinyWlbirDiPcEaYniwtLv5DYj6/gjbaugX9YhruNqffg9EwRPeFlJE7WeaMX7rw7MLvTG335BOojVtYhLIy2VxvF3Wz0+24WtWasR0OlyXh5H5XXOXyUykx1VwgcIajV/JcBtOPla4ZRevwQ7vr6avFtMp18b/cwo40pKf5cssCT3Csf91eQkF6tvCTH0Z9zfM8TTvbxdXsNCr1dKhfje28JbL0BUMpqhEN7YJ8dam4A9X30zT1fbWu+i8Qm0rG4Qnpt72b+4CO/sXVRV56Od5l84274fhycw8Mj7xVXPCRDx69GVf7H63ydLiTZ+x9dZYzTI7McaWmCb1CHeVZrv/copeq+cYtVbyhqbot5fhEd/Gk058x5JTmWFC5NMl58k0kf0LvD5tLqupIGwmN734vwwdNpY1W7J8/pLaCyYDEszlSRClVR2JspIIJNXp8EFOHFbxTy0g2mE4iOFACeuLoxcYUZbjFsm43kigr8dixCyPMKdNoucxEDCyZGlZsjk+lqJSZiUjR3kqyI5ptM6BUnqWxmQ2lZJyJ6OTeGVtyzGgZLDTqjggYd+PQa41LpiTZav/Kj2RRdOZcljqplFetByMmqENM92MiYtzytY/cLgqYE7Ed/z5VRNKZJXrBiezFNvz7ASkEcrqhZAi+yPZpUdhKirnYcXUzwxaHUxZ6VKEuyBhyB+xgEe9O2wU2JRVK3HgDW4H4WvZDNeYRUVdv3TlvphGRo6G3R7YiWQSeyGjiFoiqNx/got5gXYU620JrsMSVZs3LiVUca/KjtmSALT5qbBzVDfEu5kShywj48L/pnfkRdhmYtjxgD9JiIG50lzbA61v03bi7WGJ90agsHN8cs4wOmvo88K0ks0EghbtySG6nG0r+ApNnSHb9DYWb/wjuS1APeJ1adt0Ft/ca/0QocIBQu+8OLkxq8NlFgujTmo0i8DXx9jmQJ+EL356rt6uwpRDexKYuAg9W3Vsd94RcE++DmrlgkzSZMw5JhHY/aQjSsuX+RyRkDV2tmC8DVv81SKtwdZbbC0sBWNXuu0P613S4d3QJ5l7dpYffRb8+IWE+uNdHATN5iGK5exhT+Ih32OtwUNEnRXoBqFPzZmoX84X2yBYCsBFQbjkq+L/E8200BuZ7uWkwVlyISp6EBWSlbtC5AjsZTzpLfiCzr67sO2H+sCdOjB0gP3iD8QXUEc+WFRyBqTIrDQHulyGwlVsbYEtQaRKB5I59Q8onAbOBVi1ToHjvmUtKgMkyw3KXUzinbWvgZVpR3gsbtSvEPg/gCM2JyzP8sIpFkmm2BFyXryCTBOdcTKcFJsCN2kqP5TGHfcU27QUgSix1ynAHsK5VzjQBeGWlPgtsQ6Htd9sCtxoo05ZgS0Ry2rYGtGAua/KFraEuYGLscKMxDf6+3avvaoIF7LXrGiJwSvkwVz8Noyy/X5KGAUUjqtECI4DNK7H50HdIVFNTVsCq5sqqg6Lps73/Aaiaqw5REP1alpB5sQPm3y6GF6BKu8Bq2wrfmca86nQNoVPvsvlFgCBXftupSvS+IfUqFmPl8u0boPD3qqQy67EtqEkdQ+BMRjHnC0pWTAs3loCihaJBNCr+3j/A2YtSCPPFNk9mCahVLDhnsHp7mwwmAJ1Z6ACLNVBfCr2qAR3nCxEi9MGTGdGqC8Si3O5B0NHrNNQF4+ygtBAGYgm7dQfvEUAo/5Kwv3hJ+JKw+3hJ+JKw+3hJ2H8Jv29LKB12w54DshVVEkpy3wGV+JUS/hm8JOw/ChKq4f2f9AzFyq9VcxL1jqPYo9j/72+JaP13VQrtD3Xl7yA8lJ2/BOrfQe/PJl544YUXuoX/ASK3sua17+i1AAAAAElFTkSuQmCC;fontColor=#66B2FF;" parent="1" vertex="1">
                    <mxGeometry x="60.00000000000003" y="60" width="60" height="60" as="geometry"/>
                </mxCell>
                <mxCell id="29" value="" style="shape=image;verticalLabelPosition=bottom;labelBackgroundColor=#ffffff;verticalAlign=top;aspect=fixed;imageAspect=0;image=data:image/png,iVBORw0KGgoAAAANSUhEUgAAASIAAACuCAMAAAClZfCTAAAAhFBMVEX///8AAADd3d319fWurq5ycnLh4eFISEiKior8/Py/v7/R0dGAgIDw8PDOzs7ExMScnJxnZ2eioqK0tLSoqKjm5uYzMzNYWFiTk5Pr6+teXl64uLhhYWE7OzvIyMhKSkofHx8WFhYNDQ0mJiaWlpaEhIR5eXlBQUEdHR0vLy9SUlI4ODiaUFcAAAAJgklEQVR4nO2da1v6PAzG1+EJEDkIoqiIB/w/6vf/fg9NNk5ubZOmdJfr/cJLTlv5sbRJmnZZ9pfVjd2AxmsWuwGN1+whdguars4wdgsar1HsBjReo0HsFjRdw17sFjRdg/PYLWi8/sVuQOM17sduQdM1XcduQdOV/xe7BU1XV13EbkLT9TyJ3YKma/0cuwVNV08lt9qsmXqM3YSm620RuwVN15NKmUazRmoZuwkN1436jN2EhmugXmM3oem6Uyl6NetcXcVuQsN1pu5iN6HhypVK82ZGdZRK0atZL+oydhMarrVK0atZPaVuY7eh2ZoplaJXs16V6sRuQ7M1Vyl6NetDpejVrKVK0atZD0ql6NWsL5WiV7POlXqP3YZma6pS9GpWX6Xo1axNeJ+iV7P+bRClymGTrlWKXs16VCl6NetiQ+gk0ess1/Iz6EHOEkwtw3+ckqnu24YQFOhf8E5fyJ6JGyuQ10z4VLEE/swI/mWsRVhsPoaVwy+80xeaWs90jm8c09u405kHIviqjKyq/lne8N+5F6Iz66kKRMqn2N0LURf+fyGeEjqiIno9FSKfjs8LUXYDD4iLWlZqF71eeiFyNjQvUwNE626HqPLjV3D+nHJG3eqv8oHpHLk+9KXpLfZeeIvIw9QAkUdG4kd/npIW0x6RW+UwGCTVio8EiNbAiG1qvoge4PTuC1se3C3zAq8iLwGiaU//feIewxdRdguMnOs4vzZvdlwHI4ZohEMvt9bUG1HhnTmO/Do0c41eBRF1fEzNHxG4yo5XxlC/1T5UowQR4YmZQaE/IsiNKXXv8M6BfuPc9biSiPAfnqkJIMrugZHDVMYl6XIXRYTXOsvUJBBBeky9Wb0UQOke0okhgvTvDekK3pcIooGTA9unuQfCiLI119REEGXgeFiyiBjQEQ4qjCh7Z5qaDKLC0TeO5t+OHdZW0ohypqkJIcr+08cxlb1OyCeSRoR9IT1hLoUIfiLDgeD1r9qXqySOKLsjOLk7SSEqUpA3dS+/6ldpSVx5RDP96Jt6DDFE2NfUZYnHpX9CkDwitHZX776UHCKMg6qdfDgLdReHAIgwV040NTlEGAdVZgJn9vGuQiEQgQdHzEEJIso+gURFscc75/oWzBftPXFLb4okIkTxu2Tok+eQBEGEqSOSqYkiQoO6PnoWXW+6WxsGUYdsaqKIionLwyphDOAY2fUwiPAXs8+d7CSLqJh8PLhinvUznF2bAiHC5whjhzAiHPn3vTOYRrInSioUClFGNDVhRMXk4+Toca3TbVIwRH2aqUkjKiYfy1ADryrerk3BEJEmGQIgwsnHVfHgu9oNcFI4RDBn7uzsyyPan3zE2JY0n72TGKLfnmJ+2BuYJY+omHzUozzOjXwwjxMQEaaOHE0tAKLt5CPOOrB3bQqJCLoDR1MLgQiz1JfZkyJ6IIcKimjmbmohEBUGhgkkcvS6VVBEmDpyWl8BiMbDHkGP9nALJx+PvUiiwiKC1JGTqXGq1Bzyq//K93oU0AVGNHA1tUCIBsVbfcowxRDVTHrAyOtgaoEQFV21V8FzaERQi+ow3gZCVB6WXRqWnQARREf2OYdiROtSZG/ZbIuTP6CFR4TZdqupBRn0oVyvEH/dYnhE8LJ156QgiDDPjzMi/NWvJ0DUdTG1EIiQzaQI1thbFYghMlTM3Dhc6AEQYY5Iz3hgsMa9p8cpEEHVkcXUAiBCtxE69Vf4l+k+ngQRTGyZcxHyiDD4wFQs1oswK/BPgyi3ujHiiDCELY+IOTXezWFOgwh+UqOpSSPCRMguPMQ1eay844kQQdWRqSRaGhFOpO1yRNh3v0adJLIgmllMTRgRTsfutwk9AM5yMDFEtlhap44MBXSyiOBbHU29oh/JWJN/MkTQG9SbmiyiFVjV0ZPvR7bnqtMhGhj7S1FEWFp8bNYY09I3kT0dIogDaiMlSURYJfM7kYeZEfKU7AkRwShTR0EQEWYaq0qtnva8SXedElHHYGqCiDDwqIo2cEKNGojQEHV7w/IrPl4vFtc4qgIilyCxV29qcoiuDJdKv/YCM4iGqFPmFNDcFVaCOSOCkLuagxgirJKpO9J9TTdlEhkRVBBqQqvxeIWM3BFltaYmhQi96PpkOVohKRDhISr7Ho2KhEj/xquqF6QQ4c4W9ZWo2JdXNqFOLET59tt86HVL56XFOei6ZtgVQgTTv8ZgCLsISs0jC9FyW07UWS4fSIjA8a1YDSaDKHf4/uhXEuYeuVfRz17MTEKkv0XFTf5kEL2q6qMfaGWxxWPx+iLtX9z3S0okRDCo/DY1EUSYo7bNQF5YevTK95MRoX+hXkaQtKchgtTRL1OTQPToOKJjh+WyoB/EQ5TNis3B1LhLRqTDyV97xAggwuJGF78Qhz3X9bFMRNrRvoL1i18FIkLko3/F4wUaAoigOU7RBTpPrrUQbETw8APGBioi2G3h6Df0R4S7A7k1A11wx707vBCB+a/piAa/Tc0b0VJRjoCBnFvlvBuiznAI48QAB6OzUTndAszIiCB1dMjaF5Et8DgWFK671UJYET0MsAFQoTPcbp9S2ElPjyB0RNBhHnzCF9E30dnBvt2pFsKGaIrR1x1clfkrRoB9tRejPXAQ6R/9bf8JT0Q4lUjZicO9FsKG6A57tWUxxhflXtA1/jwXbggDEcDdb58fIpfA41jOtRA2RNdFp4Zu2XYQ2O53qn84DiL40N5n/BBBU6j3LndNQVr7ol7hE3Zv15+jvTzL8OPzeoTfkYUIZpR3DwHRed4nChuEFwR1NhovPftoLpa7Jq+GuzkwDebuoIvdZ+n752MHZl09Ew8RpI62n2Ii0hPQOD/G2VjKrRYiIiLISpRBgAcirPnk1FdhCtJWCyGBaMxEpDuD0tSY+13PyxQZa9VrUQthuQChz4p1J1Ad4qVbbpn1rTw3W//76ire7gJtUj+ZmlWjZGpWzT3va9AC6e6IW1ffFvWTqVk1SqZm1dxv7Wob1GWGWG1SnkzNqkkyNasWydRs6r55rRNvhfJkalZNkqlZtUj3lbRp0x1x79bTGuXJ1KyaJFOzapFMzaZNd5RMzaKcd7eeVmma7rlt1RP9FiJtU9dne8GWKE+mZtU0mZpVC89ClTbIZ/u8lugimZpV05/YLWi+5pRbiLRU/A28W6M8mZpVE97WcK3SnL8pbGvE3IWxTcq59+1okSa0e5e2UuLbX/89dZIDaVXOvNFSm7RMdaJWUW7q3lJ1/8a82v/itlwBGdYyKgAAAABJRU5ErkJggg==;" vertex="1" parent="1">
                    <mxGeometry x="265" y="183" width="140" height="84" as="geometry"/>
                </mxCell>
                <mxCell id="30" value="" style="shape=image;verticalLabelPosition=bottom;labelBackgroundColor=#ffffff;verticalAlign=top;aspect=fixed;imageAspect=0;image=data:image/png,iVBORw0KGgoAAAANSUhEUgAAAOEAAADhCAMAAAAJbSJIAAAAh1BMVEX///80NDMxMTAmJiUtLSwbGxkoKCfi4uLT09Pf3941NTMdHRs+Pj3m5uXc3NxWVlVycnEiIiDy8vKgoJ86Ojn4+PjMzMzr6+tNTUxbW1q4uLhQUE/Ozs6cnJxEREPAwMCsrKx5eXlqamkREQ+GhoaNjYyIiIipqagODgthYWF+fn2UlJMAAAC6leu6AAAL20lEQVR4nO2d6ZqquhKGtRKCNg4EmUQFZ1s89399hzDJEBCVXsZz8u4f+1ndEPOZqVJJVQ8GEolEIpFIJBKJRCKRSCQSiUQikUgkEolEIpFIJBKJRCJ5HmOqjm0vYjRWHePTtekZS/VO+spEikYjNAX7y90tMKxP16svgqOvUIIBhjkAmGjafGN/um49YOuRuoK2IkAUfJt9uoZv4Wx9gvnqcpFw/d6GNBY+bWi9Ihjtv1Rj0ElfrJHux5+u7fPMrkpHfbHGw+nbJtbFg/FXA/lf1VWNPXqiARMANp+udndGPnlWH5NI9W/pqR5+sodmENf5dN07sdCe7qEZGEafrn0HtvRVfRFgii9xi94QyOYb0a047/lJtCJxIvZYtPGbAqOxuBJ57+i8LzCaUfefltHC8sVloiJR3KV/8840WoCKOqGuHwsExuOn/E9L4WPNW/soYEIPQ9P1Tdq8609Bp0+L4bJpWwmBgr6xHStG9c5L0iqSiNhPHbO5ykDml2npaWt29luWTqx/SEUbx+b9BHI9zq7B2EDLK+LtFp1DY3sol6Z3doemZsTLf1r7Lpya2oMsW3wwQeNGi4jWiEbTIoB2rUbYyG2QiEWzbJr2TOiRh2ncJFERywK3rvx6drAx1Qm/9dHiH9S7OzN+E3aaL8Z8nwC4Qnlt+Ks9TNQuL3v8r0cRai+85DYD8rq9rXPnYSTSFmPMtWc6GyYNr+8F6qY2t58pNePSsrfbrVfvfdxODua09uDHUH8IrkGrTageCUERZLKotI7DnU81kcxve6fXOFZkXMxsuAFdVSp/5o1Egff6XM7FszY8DEq/HGm8gbj7UFVfY1PWAFCyVi1eNwXxrO8WRtWtB5il3/O6Kbgi+xUrWPuaVYe2xQd4q35Hg0EMxnUB4BYfWPMG4lec06QsOAveobh5cBSOQvxFCnecrQct2XS/HIVk/an6Po/OUYhKzg2eQk20fX4L/58KH/dS+kUKb5zlrrT/s3iuum+aS0f1qRKg+MCMa7Z9kUJrXrPKyhtc/or/TXfBgmojwk/Jl8brxuCL5W57gF5Z88vzzKDexpHC+Yfq+hrWstgP4VDe+6lck0Ykp7CzXdSouKGsUMuWDCCk8ssNdwd8+3cCHuGsNFTjUK1gcEUodm8M9cqmwXC5XoxgIAw2b64f0qonyRot9P0+9GqbIr7HFATyRI247lJy7Pi64fPeh6VA3kRrxfcId7S6TlyPuUjDsMFXNsTzTq2w5h89KkLtnRoumpAu3jJ+H40sGoE6aVRLfjcd0sdHZNae34REsBsnTVdNDo8OZ6x905uCmd1O030orX2+MK4N5/9lR5UIhI1XDsIWr+es6Yx7iARa7hM4O8BMotvU36ztsEmgYCfAMc232kA5cq0Te9kcNkS3/7j6HZi13Nsjyq7ajkbgKs1vYJHsmZxj2809jN3TepqOSGfs6X7rzT0q3ChkTPkrdwYQbTLfs4PFqzuk7delO1kKH2DL3WEURUJyOvzoDi0QUd0Xu1fCnTjQjnc4/j1Gw/WmJxG1jzLWD243dwLPRT4YvbzfT8EU6i5UjeOj2eYhwh/HnN6UeBByJSzxlkSouhmFJHw9Pg/w9tO178Tp1eAgIOJ30YTtM6H4d4j5PWdNrwRzA92LvA5WMXbPxpJiaIrKEBXvqWYEdBXM8dQB4/jbNd4SEP62BkxQda1LOwIabkTc0XdidMQPxiNg6m6+aYapoW7mLZGGQM2r99X6GNb6NCGophIwInh++Z4VsJ2Zd15pikYRYSBEtQNcN8HXt16Fqe1dNrfb7bS4eKP/NXESiUQikUgkEol4WGvb7ssr47m/5PSHZvxsc3rhoGh8IOSnn7ujNwrRNvr6ZxJnJkUv3CkYK0MY9qJQTeJQ6J/d0wzJS1HzTGE/bZjmG/m7G2LskhA8nyKvP4VpWOPfKVxoAFrXq853+lOYxqngax+FcTn7P/rzo7w/hQOfOZ3/9Mhq+kosco8K1RWidCicw7xHhYOBHQS9FGUEp/nkgCe7bSlo0Lbt2CU4jf6fTKmjxdW8z65OELo/v+CWQyzqClnx5oH4+rZpeR0t9j5VJtdb+R6Dba/Xkf3w9nronCaEsFRXgBEs75/BEn78MutkT4nCbnQHc4wwzvIdz3QTsb+IANFrQ/1uxVQVOme/UDxnTFkeKzd+gBB3UdBjxhlHft+1kLaT4uEDprvs1hlL8RQnIJkDS+tkHGk88JNUCNYNCo5uwDg3rioKtxNSKl6v9rrRFRVOsYCu7l9CcgnrzSQoVhjfcwWCCEk+iUxGPIVJdBpgGocNOtf8NZR8QWg55Si0jtr9ubT4cqBFoFVO6eCQRwD0oTCpN9b8kxcElz1FcWcZ1RSS2zKycECD0GPd2IkPSLGy2niBt1gp8b+wU1e4T4o3b3HxWlx86dLQlhMhnAeN9aEwvm9I99nXamxYljxQ1KrCIRtIKOtAFruhDijMDl7UI2tR7BtVhXHgJc3//IOxgbj4+4FNwL27Qje9KWR3RoFsCz8ZM1stifcpKWT98JzNoixNJEyKk4Y9iV5Dx4pCT6kWP02Kz8asml3LjXo/QJ73FMDuSWGcshOX7ykZrH20S13hPScQu7gPuDzzz1hd4xiDu0Ij2mQMK9egDJaMOI+1ya6sYjO0Z7PRLbsdgN2eFN4QJ7Jn+qNoB9aIZYWFa6EswUAtteNa0bRfvaSQFV9LWuZEX0WW1VtN+yjdp/O3cU6vIyXxGG8rZB/GicY17LXNalgeh36+TrGoXnSuvTaNlmerqJDFdHGs5iASQRNLLE2Kigrm/SL5Eax6UciylNHmILmSwkKeww1qzZ6TK2Shp7wYxT3O8hEmV8LL38KZxvmWD6yEtxWeSWskZ1nh3dRgNWy5yZwrPEXFr8ZOFSNqJjBZt5wluyNU+pKnc3cV/Rcvym8rjAZ9W5BcUWEhbZXjQiVHUoNClloJNKVGvHgyVUl8cPVLtoyYQR8KH1S1tOLfx92U/bjFQ5Ur5KUZyIhnkks80bR8yX0obPM0VezSjBm051fNFPJj1FM0toYkuSRaMtP1orDl0m6DwvEPDJWWTVumMI6P/gE+cRsmfpiWkOc+FLal9mtQyNaYtvvoeS+9RjPSUZ3xYWMv6aUtOTTfVqi3T4oNCq0ltIaa5wp3+EEG0CSTQTKv3tluWFKKDfvh2wqZPxI3j6gGhcyPCi2B6rnCqHiANk+PpfzEs05pqgl+46QU/2GT7dsKZ9GGATW3RpPCQGuNcs0VqvAoZDtN1QeFwlJbHDD7x/t2afQJnBiWk67rTHeTQmaN1cNcjaOu75kxdrdLo1EAP7XqbaLiU91e6vKFfFiPV4noZBi8r5C1Ri0OaUExpvsWhYML5SS6PmoYK7eSQrYHwdX8j3nxjDT/LtBT3JudBaQbfjTuR2GcxJiU67BghgZV2xQO4p1SeRLZocw6L+wP2eYIl5MlxX/oBGX9JsgiG4jm7/WVlnmM0sOYHhTGO7hiPtWxzj5T2Q5aFc7Ylp7M7/bkaMUWby3+QUGhxTwD2LyvueruXnzMMQ/egEJoJrlafSkcrBM33/UydQzDWYdxqlyULCHNCgceqw2GvcdemwZ63Lm0pOJFL8bIZLYpWS7i5+xwEjtNCpslg5dzAfvpDNyLry1gdRhiRFzXNTVc3Ou2KBxsY4cDpth1VzjxMpL0kZInaj2Jf4eQu1qlxaOwWBBHIvGzTtyLwsHMTcLmsz+Cg5VMTJvCgU2yeTDpW/fcUGV/6cyvFl+1osJyWDtoy3xe6EdhNDVCHnsN5HD32I6Hqc97her1Yts/lL4GGNH7afvsFxNSWOgvZrH4Xf1itH1VchcU1vyCpRxn2SZv+7yjnrLVffbnmBW8PBUqYN3CMM564YXHkOMKcBZXU2Gv/Vw3RS/+MQxvxdUyKn5Co/IVmDfcCxiFKxw9oFF/FxTfvITH4zE89xL67aiBF8zUJ4+0reks8Lzx9OFrrHhvNG0+YjHUkefZqqhh7BKJRCKRSCQSiUQikUgkEolEIpFIJBKJRCKRSCQSiUTyj/gvaEy34Dsc+9EAAAAASUVORK5CYII=;" vertex="1" parent="1">
                    <mxGeometry x="120" y="251.5" width="65" height="65" as="geometry"/>
                </mxCell>
                <mxCell id="32" value="" style="points=[[0,0],[0.25,0],[0.5,0],[0.75,0],[1,0],[1,0.25],[1,0.5],[1,0.75],[1,1],[0.75,1],[0.5,1],[0.25,1],[0,1],[0,0.75],[0,0.5],[0,0.25]];outlineConnect=0;gradientColor=none;html=1;whiteSpace=wrap;fontSize=12;fontStyle=0;container=1;pointerEvents=0;collapsible=0;recursiveResize=0;shape=mxgraph.aws4.group;grIcon=mxgraph.aws4.group_region;strokeColor=#147EBA;fillColor=none;verticalAlign=top;align=left;spacingLeft=30;fontColor=#147EBA;dashed=1;" vertex="1" parent="1">
                    <mxGeometry x="190" y="116.5" width="290" height="223.5" as="geometry"/>
                </mxCell>
                <mxCell id="31" value="" style="shape=image;verticalLabelPosition=bottom;labelBackgroundColor=#ffffff;verticalAlign=top;aspect=fixed;imageAspect=0;image=data:image/png,iVBORw0KGgoAAAANSUhEUgAAAUsAAACYCAMAAABatDuZAAAA9lBMVEX///91dXX/yyr+zC9tbW1wcHD/phFvb2/1ggz+yShpaWn+qBXo6Oi6urqNjY12dnbf399/f3/4+Pjz8/PNzc3Dw8PJycmxsbHg4ODY2NiioqKbm5uFhYXu7u7m5ubyegWpqan+oACWlpb0jyT+0j/9zD9iYmL9/Pb9+uz0iRz88dn75sL70JD74rn7nw78+u71lg/+xxP3z4T98d38v178szr7yXv72KD8uE3868773a79rif9qyj9w3D7tUb92XL911/98Mn0jQD95ab+3YP0nR/82qf94JD+0E797cD84J/+23f4wlL3uy72vz74ugr2x2r4xWMSgjYgAAAQJklEQVR4nO2diXbbNhaGRRkQLVgkRVIbN4VkG9lN4kXN6jRpO55pJjOT1O37v8xgJcFVlOTWjoz/nDYyCYLgpwtc4AKEej0lJSUlJSUlJSUlJSUlJSUlJaV2vby87xIcjF6dvFYw70bPk5PBm/suxIHobXJyMnh236U4DL0ZYJav7rsUh6F3J1jJ9X0X4yBEUJ4M3t13MQ5BZwMKM3l+3wU5AF0nzDB/vu+CHIDeM5Ynyfv7Lsm3rxesjp8Mfjq976J883rFWZ4kb++7KN+8XnOUJ4OTfCT5THWRdtDpIGOZvBAHzwdqVLmDniUZy8HJGTt2+mEwUJ337XWeZCgHCTfGtwn+rEaVW+ttkqHEekkOXX4gH1XnfWt9HEgomTG+SOgfqvO+rV4PcpSslTwTYM+LKc9++fUf91PGb0UnMkpqmG8S/sfrQsKzz+v+U9Wdb9FZIqMkreRZ/lkeVZ59Hh4d9V/eW0G/AT1PCigHg3cfLy7E55/ydGffY5RHa1XJW4TdeAHl4OrmKmOZjyrPvu8fEZb/3O9ui4m3b4EfsN4MSro5vsphDnj7ePmUWCWu4/9qz20ErXpBH591wxVC2mjXoqaaZWn2rlf/DXpVQnl1fIwNU8Dko0pulZjlr+25jYBWL0BYhjr5iJwdi2pCfLW148V/h34qsfzh+LhimBnKo/7T9on0kd7AUscsPcSwTncsKmX5gO3ysmqW1DCzFvONjHKjI29lOWUsYbxjWR86y+ukgPLi+LgM8/JSQrnJkTOWEFSEgtwujR3L+tBZvi+yvGIsf5BYfpRRbnLklCVMjaomvZ5jExjaKtqxrA+d5YsCS26WkmFeXBRQHq3bHTllqTcZ3kJDOkCTXcv60Fl+rDNL4n6YK8cojwoa/tqaXTvLnjudG7ta5cNn+brWLIVhXvxWQnk0/Nw6It/Acj89cJanhUHPTc6SGmYFZR+r1ZE/ZpYvk3qzZB32D2WrxCjbHfljZnmeNJgl6bD/9rRqlf1164qEx8zybdJgllh1Fbw/XP+7Lb87Y+m41ZFmiWVdEikDrO2y75hxo94kTWb55LuaCt4fDoe/tOW3yY8TObzAROzjJE7TYO6JJ1gaaWjbdpjOx4WHksbjNIllm7FX99jR1DdxBrbpT6q9Bseb02vDYFrTpYimAb13Q85tetdklk++q6vgGGW7I9/Qv4S4mNqMfp5o5GkxTMewgQ4hBIgFkDxTB5ANNnUQTqUnyuxykUKWBKewK6P7UaDhDPlpzS+GpZxpqPOTOI9gWbx06Wv5ve25uwmfLNmN37SiFFY5HB6dtWTYznJMBpGAsZyRiBJ0e4uQh5agSZ/V5w8j4kvhOLucsgx7vTmEhRRFIFOtEBPQC6XBd5Ov1cFcvtSAhUuBtc2w4qzBLJutcthft61s785yQlk6Y008GyAFd+1y0A7CmcwSE/dBOYUcX55Xon4kFMA1KXwLpZNOUL10i5b/eVJrlmWUOckhduT/uTuW2sjmVUqDNkUJub3oOv5Pgpyx9BkskgIIGwM5TIESAJCdB4LXgt8M52xBnj0SlumkQJzFV/JLt4D5KWN51c0qCcs2R74lS9vXSeGt0Axp9Mikz6db8WQ5WkzmvPrDZc5Ssykdm6QYTwNuZ0A0iuwbwvV+7i2XnmGyP9FUykAD5mwZuZE3Z40B4l9EDJiRB7PFaJFf2rma55GNjhWcdDDbHDljOXdLitx6luzRJi7uv5AkzKiAL/yrM6UtAAxlFOSAIbzCkhkT5D0lx6LptcxjeczQdZp+zG6ZtRlRqlPuUnmAmTW+nsVu1zV+8CqpmmWL26Esh583sdQqsz2a38gSzDNPPUKVajVmaaYyS2hV20d+URRA/KeVu6ueG5KLWMjUAPSLli4OcXKf5sZaF+BLJyN2KO6G8vR11SxrrTInidXmyBvi6nojSzkwHNCyFzwrT8bMTtjluJCCGzP/RkZzezWTT0f0NLU9n1Ya2esvbRG2ornAtOZhYDfDvKy2lrVWWUDZ6si3ZakH0rUox5aLAaa2w1iicoeSHs4nkdxJsZM9pxWZVHLGciGfFEkd2gxbJWzUkDtOAzxLyma5oa1kLFsc+bYsodSTpiWvtPVLCiAmHxnLsHzPBao9nGVATlMHQ21P9+sSeZXqT+RoVWNtkpiguGpC2T+qomx15Lxa6CXxXly1fymXk7ZsWiXLUBPeh7JEs0oKk5qrPEhxl5PpdDrzRsTukLiK+R49rqm01GSrtZlWCqvT8Ie78YsOVimx7Lc4cjbfEy+8klgjVWEp1x+HorRL00TzOa19GoHCKnOVxLRo0M4ssABiU3ZWMOnlTQAzbF0LjEVpsE2/R2tenqSi3xIoDTTr9TEpmGWHtnKTI9+yfynX6CWfpSxPYDLXMuo1x9xYtuKmUxtJgxuIQitjubREZx1YqeHl9uZarCkq35w10F26mKc/F8xyU2coY9niyLdkKQ1YxIxvvcCYs6xrvVyQNak9N63NhrumsZ215xAgmM6E9y8PLWuubdfliTx67OJ2eAiz2ZHvwXLSytITLGtch0MbFnrCFbDYKJTHi3IebiF0ApHFCrNsWiJBr+3iyNkExUVLvLJqlORYiyPfmyWsF+rIkg1C8VgmnowXi/EkDhnN3LbGKcwIayK2wVk23LuLXbLIxk09ykarxCz/+1ew9NjJaFQr4Xsa6zhdWTNlHS05VrYodT9x733ihzlPOtShdRw7+Pp7d/HjdILioj2KXoNy2DIi34OlfLJeIn5Z1jLzPczn20VXD2ravIhYLDPGFQYfWVrW4u4mOkFxsxVKdqzZke/BkllXbU+ai7LUq1YyE12CBetAFseYLmrwHxGPz5GeAfkSWDB6N52+S7hZPvnh+wrIhraShdYbFw7uwZIbVUuBWV+92kNJ6fFI9P+D4lmviaXovKMFz6JzSKiqyw8JM8syyo0sh42OfB+WMbkWVdZg571qyrLaYEbZON7Qa9xuKreXo2L2dKxOfAttaEF5DNnrPH12xrvpGGW/AWU9yWHzeoN9WHq1sY1I90U0gsc2yrTz8BJjWTRBNlpnBycmsgt4PNHSRrROlGMbPS3tuLz+Ohlc3NRYZUNnaCixbFw4uA9LVsnL8UJfx0MX1qcWMbfiE89Y1JMcnEmddi6XB96nZOYTD4iKtpfX/0CvaTENgHugRkc3ftVawRusErP8X1Oee7FkPUxUnBokxyAllcWCC36aoWTRH+Z7oDR+dq2cJTsL5PaWmjQ1dNbDBIUGhFWUVRfTfJNcNFjlBpQtjnwvlqISmxkrJ2Y11JBOFyceYz6KZ8npsBpaWYgynwghtscmMKWuN1v0TWObPKSs24vSWb3kyur1Krl60tkqiywbX+Xbj6XD58pQ4EWO447nbL66MN9DZ8tQOB3RBDq7QtgO7+Wg1HMdZzS1yf30jCVfl4zCCaHneKZk0tmQCZmTyOk5S0PjY9ouVfz0dVLpV2504Jsc+X4se6MVtzyEAECIj+xEAJGOe+KAwUFAFwm0lTA1R0wRI7IAmZnhRIoTibEOghb5H0vLc3fza8m9uUWjTgG3s8FN7cCxDmWZZaMj35NlbyTHy5j0rHnk43Gx0CPTKq+1y/JiAhTL455xZa2BBMutZKxBUOz3N+ll0hll2SqbHfm+LHuuWQoXoTTrxYjYRlBIAnQ5k6VVAIJRFsaQoxIvUHgLzi99kyjs2Ht/f9w1MlTDssmRL1cIoVUjS3qWPdaMfq7xkRMbZREwHdmS2w3JFQFLItwQQHGxQ+3E2XIOiGySv3RTLEPLgEFU7p2PTQTys1rnRRsvbnas4K2OPCJqaq6dETnL1wxG+eeSxnNTIy0WDOMCaylvz7d10qaZNev+IoNdTuYnssvyGzkT38ancZOZhYIljQzTwjkj3fa3WJj1sd/JKmtA4gTDv/qdfLf5G+Fy2lK4DV+TuLb1vNv0JTfq2Zd1f0erXH9VW7+VdP77euvOEFk0ePtW7RRR0emnr+vWCl7ndm5/VHte1+ryx9vhNp2h4e0faseNRj3747bf0Sr7w/UXtf9Tq66xE+pklevfzzfn9th1/nXdr6CsOm/lcrro9O0todnCEructvcnlCS9/BHTbELZVy5nO738c13PkrgctRfmlnr+ZV1nlcrl7KLT97+vyyzXXz8pl7OTLl98XRdIKpezh7ATymdvb/9QP0Wzl67/pDSx81YuZ3+df7ldr2+Vy7kTnV5/+nStXI6SkpLSX6tosSzucbFcLrbauaJ4sbHz/m8HoHiFCovKXQutdubhWmCbjRoOTXNYXMfo2sWFepvlLEfCsiPU8Dbo49D+LMcIaWKCOi2+ev/ItD/LBdTytdBbTvsflu6Y5aPW/iyX8AFvgfe3qp2lF5tkK7VCJ8nz8bGUb30xNYxY0yzDMDz+J/VDnmGMWUrTlxvQaE7yw/lPjD22fH2oamM5ChF9X1OXOjrL7BhdwReyVxV19qcTAvYSioFQ3DNxSg1ClHv2OdLJEWA7Aei0Sv/bUgtLD0ANWKlJXg7JNrPSCYrAJKfIaww2W98M0IqyNPmCV0OHvg2ARrbByffdiZEGATQh0G27ZmXsN69mlhHZaoyuWp6D7EUeEycntdiJgVi+K7WXEktMjSZc2lDsgTHBKOnuTCOycv8gWWom3cqTK8pYphCG3D/PdPoeIn0nUbzu5QuEkh8vsOSmHFk8Q8fOX29K4YGyLO6aIV5QWgINZq/PYK70xaQJ0ASOxQqtKMIGlplvNyFbEk9eZsqW7h8sy8LGAILlXJcq/xiyt0E8kPclxUat9SzzF3B9yLYSKrQmh8rSjiX5okqmUHrDwrHYs+MKC9PSSzRdWZpyhofKsuB7HN5e4n/l10dMTaeeZoprvh7OpR1uurLMzlEdKMt6P048hbSZGrZS5rU9C+DOJa7/2f4QiqXQtiyx/wks3OWGus1hdGUZPmqWch3PWWItpwHIaCi7FGrsqxfpWeVnH4Vi9/Suvid9BL6ngWUMpc0y8NhGj0gIfbkUXaIR0Nge611Z4gzzt7sfF0vctc73u/QZWNeW3oVFfBPlcUeWpK+exYYeF0sy9BaG6UG+CQk+JqI+EeK7WGK7tLqwxM4nO+g/MpZjPKZOqSFNss0X8BgSsh8rGJlidB3lG2i1siSbleh01+vIP9TYRmPMDT87tNJ5HOqabnLLi/ExGx8zSRiSNwHkTXEzjXubWJItNKBlxqalW4fJEugllnq22ZVns345BH42oWNo4li2cQiJc0Ia4XRCnceCQb5Jiw+yF79jQKLIEFijg2Q5C/zCK+5O7AeZe3GmaUh+K0beeyEy6LFA2oDaS20rpH3IuR9QwpMgyPo/RhBkYyQvCK3QNNzD9D2b5LjV3xqqHuv+g0Q8JdQ6bo6htEkLnW80pLSj4myAH8COG6Er1cvI9jaZg5otCpW20BxAYBqTCfmFGPCIl3DdiaaaDul21bDr75koNSqahxYAmh2oCn4XihbjTltNKykpKSkpKSkpKSkpKSkpKSkp3bH+D7BhgQF87l57AAAAAElFTkSuQmCC;" vertex="1" parent="1">
                    <mxGeometry x="190" y="116.5" width="124.13" height="57" as="geometry"/>
                </mxCell>
            </root>
        </mxGraphModel>
    </diagram>
</mxfile>